<defs>
<font horiz-adv-x="894" ><font-face
    font-family="nobile-italic"
    units-per-em="2048"
    panose-1="2 0 3 3 0 0 0 0 0 0"
    ascent="2301"
    descent="-530"
    alphabetic="0" />
<missing-glyph horiz-adv-x="747" d="M67 0L258 1363H800L609 0H67ZM139 65H555L728 1298H312L139 65Z" />
<glyph unicode=";" glyph-name="uni0000" horiz-adv-x="1904" />
<glyph unicode="&#xd;" glyph-name="uni000D" horiz-adv-x="639" />
<glyph unicode=" " glyph-name="space" horiz-adv-x="478" />
<glyph unicode="!" glyph-name="exclam" horiz-adv-x="587" d="M544 1577L308 392H213L334 1577H544ZM347 0H89L129 286H385L347 0Z" />
<glyph unicode="&quot;" glyph-name="quotedbl" horiz-adv-x="714" d="M531 1576H734L615 1072H520L531 1576ZM162 1576H377L259 1072H160L162 1576Z" />
<glyph unicode="#" glyph-name="numbersign" horiz-adv-x="1213" d="M713 423H455L360 51H233L326 423H140L159 516H344L435 871H246L267 961H455L554 1334H682L583 961H841L938 1332H1067L968 961H1148L1125 871H950L859 516H1044L1027 423H838L747 51H618L713
423ZM473 516H727L820 871H567L473 516Z" />
<glyph unicode="$" glyph-name="dollar" horiz-adv-x="1106" d="M969 324Q969 231 930 163T825 51T673 -14T490 -36L464 -190H374L400 -33Q328 -30 251 -7T92 60L155 182Q197 157 240 140Q278 124 325 111T420 98L512 605Q474 622 452 632T415 649T393 661T376
671Q330 698 293 728T231 795T192 875T178 971Q178 1056 219 1116T326 1213T470 1269T623 1288L648 1440H732L706 1286Q761 1286 816 1275T915 1251T986 1226T1016 1216L968 1107Q927 1121 886 1132T808 1150T740 1162T687 1166L612 715Q636 704 656 696T696 678Q775
642 827 607T911 531T956 440T969 324ZM602 1167Q537 1165 484 1153T392 1117T332 1058T310 976Q310 932 319 899T364 835Q390 814 429 792T531 740L602 1167ZM516 96Q677 95 757 149T838 328Q838 371 829 407T792 473T717 530T593 580L516 96Z" />
<glyph unicode="%" glyph-name="percent" horiz-adv-x="1681" d="M1141 83Q1198 83 1238 108T1305 172T1348 261T1372 357T1382 445T1384 510Q1384 553 1376 587T1351 646T1304 684T1233 697Q1185 697 1150 677T1088 622T1045 544T1018 453T1003 360T999 276Q999
83 1141 83ZM679 1289Q679 1323 673 1357T650 1418T604 1462T529 1479Q480 1479 444 1458T382 1401T338 1321T311 1230T297 1140T293 1063Q293 863 441 863Q490 863 527 885T590 942T634 1023T661 1116T675 1209T679 1289ZM355 -53L1214 1657L1308 1614L443 -91L355
-53ZM1491 501Q1491 440 1481 378T1452 258T1404 148T1337 59T1251 -1T1146 -23Q1071 -23 1022 2T942 68T900 163T887 276Q887 306 892 356T910 464T948 581T1012 688T1108 766T1241 796Q1312 796 1360 772T1437 708T1478 614T1491 501ZM786 1282Q786 1242 780
1188T757 1077T715 963T648 863T553 792T426 764Q354 764 306 791T230 861T190 960T178 1071Q178 1123 186 1181T213 1295T259 1403T327 1492T419 1554T536 1577Q606 1577 654 1554T731 1490T773 1396T786 1282Z" />
<glyph unicode="&amp;" glyph-name="ampersand" horiz-adv-x="1534" d="M637 848Q655 855 673 861T709 875Q758 895 799 918T870 974T916 1047T933 1145Q933 1221 881 1263T732 1305Q650 1305 601 1283T526 1229T491 1160T483 1097Q483 1058 500 1022T542 953T593
894T637 848ZM1078 1159Q1078 1068 1049 1003T971 890T856 812T717 757L1109 354Q1163 448 1203 544T1276 744H1403Q1385 686 1363 624T1314 499T1259 377T1199 264L1385 93L1294 -5L1130 165Q1089 106 1040 67T926 4T781 -29T594 -39Q485 -39 396 -15T244 55T145
166T110 315Q110 386 133 460T205 600T329 721T510 807Q476 843 445 878T389 949T350 1022T335 1100Q335 1128 342 1163T366 1236T414 1309T490 1373T601 1418T752 1435Q833 1435 894 1415T996 1359T1057 1271T1078 1159ZM579 716Q510 701 452 667T350 585T283
477T258 350Q258 282 283 233T355 151T467 103T613 87Q694 87 754 92T863 114T953 164T1038 252L579 716Z" />
<glyph unicode="&apos;" glyph-name="quotesingle" horiz-adv-x="504" d="M276 1570H509L341 1042H276V1570Z" />
<glyph unicode="(" glyph-name="parenleft" horiz-adv-x="794" d="M830 1500Q766 1440 695 1350T564 1134T465 841T425 464Q425 340 442 246T486 84T543 -31T603 -107L507 -199Q460 -164 424 -116T359 -10T312 109T281 235T264 358T258 472Q258 628 287 784T378
1086T534 1361T760 1594L830 1500Z" />
<glyph unicode=")" glyph-name="parenright" horiz-adv-x="793" d="M77 -107Q186 -5 262 118T387 375T458 649T480 926Q480 1064 458 1164T407 1333T348 1442T303 1500L398 1594Q469 1535 516 1458T593 1292T634 1110T646 922Q646 761 615 603T522 300T367 28T147
-199L77 -107Z" />
<glyph unicode="*" glyph-name="asterisk" horiz-adv-x="853" d="M527 1285L711 1565L795 1512L589 1232H885L869 1137H580L692 872L582 819L488 1066L318 819L234 872L433 1145H141L156 1245H446L335 1508L437 1561L527 1285Z" />
<glyph unicode="+" glyph-name="plus" horiz-adv-x="982" d="M912 520H621L573 175H446L496 520H205L222 648H513L563 994H686L638 648H931L912 520Z" />
<glyph unicode="," glyph-name="comma" horiz-adv-x="564" d="M93 0L133 286H390L352 2Q348 -51 330 -91T280 -160T204 -211T102 -248L69 -155Q108 -142 133 -128T174 -96T198 -55T211 0H93Z" />
<glyph unicode="-" glyph-name="hyphen" horiz-adv-x="779" d="M725 503H193L210 627H742L725 503Z" />
<glyph unicode="." glyph-name="period" horiz-adv-x="480" d="M352 0H93L133 286H390L352 0Z" />
<glyph unicode="/" glyph-name="slash" horiz-adv-x="939" d="M98 -97L934 1729L1073 1674L223 -160L98 -97Z" />
<glyph unicode="0" glyph-name="zero" horiz-adv-x="1277" d="M665 104Q742 104 805 129T917 197T1002 298T1061 422T1096 560T1108 701Q1108 894 1032 984T804 1075Q691 1075 610 1026T476 897T397 713T366 500Q360 428 372 357T418 230T513 139T665 104ZM824
1209Q952 1209 1038 1167T1177 1055T1252 896T1275 714Q1275 633 1259 547T1210 378T1126 221T1006 92T847 3T648 -30Q516 -30 430 16T293 136T223 306T203 500Q203 579 219 662T269 824T353 973T473 1095T629 1178T824 1209Z" />
<glyph unicode="1" glyph-name="one" horiz-adv-x="653" d="M337 0L484 1041L263 971L236 1083L499 1167H657L494 0H337Z" />
<glyph unicode="2" glyph-name="two" horiz-adv-x="988" d="M840 880Q840 931 820 966T765 1022T687 1054T596 1064Q525 1065 459 1046T320 1001L282 1118Q370 1160 456 1178T637 1197Q724 1197 790 1175T901 1110T969 1009T992 876Q992 758 924 643T705 414L344
144H859L839 0H118L135 138L478 412Q562 479 629 539T743 656T815 768T840 880Z" />
<glyph unicode="3" glyph-name="three" horiz-adv-x="944" d="M470 611Q571 611 635 638T735 707T784 798T798 891Q798 984 738 1023T551 1062Q519 1062 483 1057T409 1043T335 1022T265 997L239 1125Q264 1136 300 1149T380 1174T469 1194T560 1202Q636 1202
706 1185T830 1132T916 1040T948 906Q948 843 933 792T892 700T833 630T764 582T692 553T625 544Q664 535 709 516T794 460T859 369T885 234Q885 157 864 95T807 -15T722 -98T620 -155T508 -188T396 -199Q302 -199 210 -175T30 -102L93 15Q114 6 145 -6T218 -30T310
-49T420 -57Q505 -57 564 -32T659 32T711 121T727 220Q727 334 659 395T450 473L470 611Z" />
<glyph unicode="4" glyph-name="four" horiz-adv-x="1071" d="M891 1210L1033 1170L895 190H1064L1045 66H876L830 -264L680 -293L733 66H114V196L891 1210ZM265 188H750L867 974L265 188Z" />
<glyph unicode="5" glyph-name="five" horiz-adv-x="1028" d="M1000 328Q1000 208 960 110T849 -59T678 -168T460 -207Q415 -207 370 -202T282 -187T202 -164T135 -134L144 0Q146 -2 171 -12T240 -34T346 -55T484 -65Q563 -65 632 -40T753 34T833 152T863 311Q863
426 801 484T608 542Q567 542 526 536T447 521T382 503T338 488L245 565L359 1171H1033L1016 1026H465L379 608Q394 615 416 623T464 640T518 657T576 673Q635 689 676 690Q839 691 919 597T1000 328Z" />
<glyph unicode="6" glyph-name="six" horiz-adv-x="1184" d="M408 521Q403 508 400 493T392 461Q386 431 381 387T376 282Q376 -20 635 -20Q729 -20 798 20T911 122T976 260T998 407Q998 471 981 518T932 597T857 643T764 659Q682 659 617 638T504 590Q448 558
408 521ZM1155 419Q1155 354 1141 286T1097 154T1023 34T919 -64T783 -131T615 -156Q514 -156 441 -121T321 -22T251 135T228 341Q228 448 256 553T335 755T458 939T618 1099T807 1228T1020 1318L1037 1179Q987 1168 930 1145T813 1088T696 1009T588 907T498 785T435
641Q574 791 781 791Q871 791 940 764T1057 688T1130 571T1155 419Z" />
<glyph unicode="7" glyph-name="seven" horiz-adv-x="893" d="M985 1169L1018 1048L263 -237L122 -164L846 1025H191L210 1169H985Z" />
<glyph unicode="8" glyph-name="eight" horiz-adv-x="1151" d="M782 1216Q688 1216 628 1189T532 1118T482 1020T468 912Q468 858 482 821T527 759T602 720T710 699Q875 721 950 798T1026 1021Q1026 1216 782 1216ZM690 586Q580 569 514 525T411 425T364 309T352
200Q352 94 414 50T603 5Q677 5 739 19T845 70T915 167T940 321Q941 550 690 586ZM319 916Q319 997 348 1074T437 1212T586 1310T798 1347Q884 1347 954 1326T1073 1264T1148 1165T1175 1033Q1175 965 1159 912T1117 818T1059 747T995 697T935 664T889 645Q887
644 902 639T940 621T992 585T1045 527T1085 440T1102 320Q1102 200 1059 113T945 -30T780 -112T587 -139Q504 -139 431 -120T304 -62T217 37T185 179Q185 259 209 331T275 464T377 571T509 645Q480 657 447 676T386 727T338 805T319 916Z" />
<glyph unicode="9" glyph-name="nine" horiz-adv-x="1128" d="M953 534Q958 552 963 582T973 646T981 714T984 772Q986 1074 726 1074Q662 1074 610 1055T518 1003T448 927T400 837T372 740T363 646Q363 581 381 534T430 455T504 409T597 394Q625 394 653 398T710
410Q750 421 788 436T859 469T916 503T953 534ZM205 636Q205 697 219 763T261 893T334 1014T438 1115T575 1184T746 1210Q844 1210 918 1180T1041 1093T1115 954T1140 769Q1140 581 1081 414T916 111T664 -121T342 -265L323 -126Q400 -109 489 -70T663 34T817 193T926
413Q789 263 578 263Q489 263 420 289T303 364T230 482T205 636Z" />
<glyph unicode=":" glyph-name="colon" horiz-adv-x="705" d="M246 605L287 860H538L497 605H246ZM156 0L197 255H448L407 0H156Z" />
<glyph unicode=";" glyph-name="semicolon" horiz-adv-x="736" d="M185 0L225 286H484L444 -1Q441 -54 424 -92T375 -160T298 -210T194 -248L161 -155Q200 -142 225 -128T266 -96T290 -55T303 0H185ZM245 605L286 860H537L496 605H245Z" />
<glyph unicode="&lt;" glyph-name="less" horiz-adv-x="976" d="M851 854L402 576L776 296L748 107L245 482L270 664L879 1040L851 854Z" />
<glyph unicode="=" glyph-name="equal" horiz-adv-x="905" d="M732 521H199L216 645H749L732 521ZM695 262H162L179 386H712L695 262Z" />
<glyph unicode="&gt;" glyph-name="greater" horiz-adv-x="905" d="M280 839L309 1040L812 664L785 481L176 105L204 306L635 574L280 839Z" />
<glyph unicode="?" glyph-name="question" horiz-adv-x="1043" d="M874 1190Q874 1233 861 1266T820 1320T746 1353T634 1364Q592 1364 550 1357T467 1337T390 1311T323 1283L268 1417Q304 1433 345 1449T434 1479T533 1501T645 1510Q756 1510 830 1486T950 1419T1014
1320T1033 1199Q1033 1104 998 1024T908 878T786 761T654 671T537 609T455 572L427 416H289L318 665L351 680Q367 687 388 697T435 720Q479 742 529 769T627 830T720 902T799 986T854 1082T874 1190ZM428 0H169L209 286H465L428 0Z" />
<glyph unicode="@" glyph-name="at" horiz-adv-x="1924" d="M1150 1008Q1092 1009 1035 993T926 945T829 871T750 774Q713 714 692 647T671 504Q671 321 854 321Q1006 321 1110 446Q1158 503 1192 579T1248 746L1304 986Q1262 995 1221 1000T1145 1006Q1144 1006
1150 1008ZM1270 193Q1216 193 1196 215T1176 282Q1176 294 1180 317T1191 368T1206 428T1222 491Q1205 446 1174 394T1095 296T978 222T816 192Q748 192 696 213T606 275T550 374T531 504Q531 582 555 658T621 804T721 931T847 1032Q916 1075 991 1099T1144 1123Q1152
1123 1174 1120T1225 1113T1285 1104T1342 1096T1384 1090T1401 1090Q1401 1090 1407 1074Q1413 1058 1420 1038T1433 1002L1439 986L1284 307Q1353 309 1408 335T1504 405T1574 505T1621 623T1647 747T1656 866Q1656 978 1620 1062T1515 1202T1348 1285T1125 1313Q1024
1313 931 1285T757 1207T607 1087T487 932Q424 830 392 715T358 478Q358 367 395 278T505 125T683 29T925 -5Q1022 -5 1102 11T1245 50T1351 102T1422 154Q1422 155 1432 142T1453 112T1475 82T1485 70Q1458 42 1408 7T1284 -60T1115 -113T901 -135Q746 -135 620
-94T405 24T266 212T217 464Q217 590 250 711T344 941T488 1141T674 1300Q777 1367 892 1404T1135 1442Q1280 1442 1402 1406T1612 1298T1750 1120T1800 873Q1800 792 1785 710T1740 553T1665 412T1561 298T1429 221T1270 193Z" />
<glyph unicode="A" glyph-name="A" horiz-adv-x="1295" d="M899 1489L709 1076L435 481H1038L953 1083L899 1489ZM773 1577H1050L1277 0H1104L1051 382H389L214 0H43L773 1577Z" />
<glyph unicode="B" glyph-name="B" horiz-adv-x="1240" d="M669 913Q781 913 867 927T1012 980T1101 1084T1132 1255Q1132 1317 1093 1353T991 1409T848 1433T684 1439H520L445 913H669ZM551 138Q678 138 778 155T947 216T1052 332T1088 518Q1088 550 1084 582T1066
645T1025 702T950 747T832 778T662 789H429L337 138H551ZM1247 514Q1247 378 1199 281T1060 121T836 30T534 0H147L367 1577H701Q863 1577 973 1559T1152 1502T1251 1406T1281 1269Q1281 1174 1260 1106T1194 990T1082 912T922 862Q1091 841 1169 755T1247 514Z"
/>
<glyph unicode="C" glyph-name="C" horiz-adv-x="1168" d="M219 530Q219 667 241 800T307 1053T414 1275T560 1451T743 1567T960 1609Q1000 1609 1040 1607T1127 1597T1231 1573T1364 1530L1301 1392Q1243 1415 1198 1429T1115 1451T1046 1461T985 1464Q880 1464
796 1427T647 1324T536 1171T459 979T415 765T401 541Q401 316 490 210T756 104Q816 104 913 131T1131 211L1160 78Q1103 55 1051 34T947 -4T843 -31T733 -41Q604 -41 508 -4T347 107T251 286T219 530Z" />
<glyph unicode="D" glyph-name="D" horiz-adv-x="1342" d="M1200 987Q1200 1106 1178 1191T1110 1332T994 1413T830 1439H520L336 138H675Q761 138 829 163T950 232T1042 334T1109 459T1154 597T1182 738T1196 871T1200 987ZM1376 982Q1376 928 1372 857T1354
707T1318 544T1258 383T1167 235T1040 113T872 31T657 0H147L367 1577H850Q1110 1577 1243 1431T1376 982Z" />
<glyph unicode="E" glyph-name="E" horiz-adv-x="1080" d="M1058 0H147L368 1577H1268L1248 1439H522L444 887H1078L1063 779H429L339 138H1077L1058 0Z" />
<glyph unicode="F" glyph-name="F" horiz-adv-x="1062" d="M426 766L319 0H147L368 1577H1235L1218 1441H522L441 874H1070L1057 766H426Z" />
<glyph unicode="G" glyph-name="G" horiz-adv-x="1380" d="M219 551Q219 622 226 705T252 875T300 1051T374 1221T477 1373T613 1496T788 1579T1004 1609Q1032 1609 1071 1605T1160 1587T1269 1547T1396 1475L1333 1347Q1264 1381 1212 1403T1119 1439T1047 1458T991
1464Q898 1464 823 1437T689 1363T586 1253T509 1119T455 971T421 820T403 678T398 554Q398 435 422 350T493 209T610 129T770 103Q867 103 939 124T1062 184T1140 275T1175 390Q1175 388 1175 387T1174 384L1213 686H824L843 808H1388L1275 0H1184V172Q1163 139
1129 102T1042 34T915 -19T739 -40Q614 -40 517 -5T354 104T254 288T219 551Z" />
<glyph unicode="H" glyph-name="H" horiz-adv-x="1402" d="M1104 0L1211 766H426L319 0H147L368 1578H540L441 875H1226L1325 1578H1498L1277 0H1104Z" />
<glyph unicode="I" glyph-name="I" horiz-adv-x="845" d="M176 110H361L549 1462H365L380 1578H926L910 1462H723L533 110H722L707 0H161L176 110Z" />
<glyph unicode="J" glyph-name="J" horiz-adv-x="657" d="M58 29Q137 47 192 67T284 112T344 167T380 238T402 327T420 439L580 1578H753L603 512Q588 403 570 319T525 170T461 61T371 -14T249 -63T87 -90L58 29Z" />
<glyph unicode="K" glyph-name="K" horiz-adv-x="1182" d="M1213 1578H1384L783 798L873 635L1224 0H1045L631 750H424L320 0H146L369 1578H542L439 850H654L1213 1578Z" />
<glyph unicode="L" glyph-name="L" horiz-adv-x="1037" d="M1019 0H146L368 1578H541L338 138H1036L1019 0Z" />
<glyph unicode="M" glyph-name="M" horiz-adv-x="1768" d="M795 0L729 370L530 1484L321 0H146L313 1184L369 1578H667L736 1186L841 594L913 192L1078 543L1402 1235L1563 1578H1864L1780 983L1641 0H1467L1676 1485L1075 180L992 0H795Z" />
<glyph unicode="N" glyph-name="N" horiz-adv-x="1494" d="M1369 0H1099L907 484L523 1449L320 0H146L368 1578H637L829 1094L1212 128L1416 1578H1590L1369 0Z" />
<glyph unicode="O" glyph-name="O" horiz-adv-x="1446" d="M1481 1043Q1481 888 1456 747T1385 486T1271 269T1120 102T935 -4T722 -41Q606 -41 513 -9T355 91T255 262T219 509Q219 660 243 800T314 1063T425 1285T574 1458T757 1569T968 1609Q1110 1609 1208
1568T1366 1451T1454 1272T1481 1043ZM1302 1050Q1302 1136 1285 1211T1226 1343T1119 1431T954 1464Q853 1464 773 1422T632 1309T527 1143T455 941T414 723T401 506Q401 303 488 204T744 104Q838 104 916 142T1057 247T1165 405T1241 601T1287 820T1302 1050Z"
/>
<glyph unicode="P" glyph-name="P" horiz-adv-x="1215" d="M593 783Q754 783 863 806T1038 878T1132 1003T1161 1187Q1161 1250 1145 1293T1098 1365T1027 1408T938 1430T836 1438T727 1439H521L428 783H593ZM368 1577H735Q899 1577 1012 1556T1194 1489T1294
1373T1325 1204Q1325 1091 1299 1006T1226 858T1110 753T959 687T778 652T573 641H408L319 0H147L368 1577Z" />
<glyph unicode="Q" glyph-name="Q" horiz-adv-x="1449" d="M397 547Q397 430 421 346Q456 220 539 162T758 103Q838 103 903 126T1022 190T1116 286T1188 406T1240 540T1276 682Q1293 770 1300 854T1307 1014Q1307 1246 1217 1355T948 1464Q838 1464 754 1421T609
1305T506 1139T441 943T406 739T397 547ZM1483 1010Q1483 952 1478 880T1460 729T1424 568T1369 407T1288 256T1179 126T1038 27T860 -30L1154 -313L1050 -424L644 -34Q551 -22 473 17T338 127T251 303T219 555Q219 628 226 712T251 884T297 1060T368 1228T467
1378T598 1499T764 1579T969 1609Q1075 1609 1169 1578T1332 1476T1442 1291T1483 1010Z" />
<glyph unicode="R" glyph-name="R" horiz-adv-x="1250" d="M997 0Q1012 107 1022 184T1040 315T1050 401T1056 452T1058 476T1059 484Q1057 542 1039 585Q1000 662 897 699Q839 718 761 726T580 735H422L320 0H147L368 1577H761Q818 1577 880 1575T1003 1562Q1063
1552 1117 1531T1213 1473T1279 1380T1303 1243Q1303 1154 1281 1086T1223 967T1142 884T1049 830T955 802T874 795Q1043 774 1134 699T1227 484Q1227 482 1227 477T1226 462T1224 435T1219 392Q1214 344 1203 251T1170 0H997ZM569 859Q647 859 721 862T859 876T977
909T1069 972T1129 1071T1151 1215Q1151 1268 1134 1305T1088 1367T1018 1406T933 1428T840 1437T746 1439H521L438 859H569Z" />
<glyph unicode="S" glyph-name="S" horiz-adv-x="1218" d="M1199 1341Q1169 1363 1130 1385T1045 1425T951 1453T850 1464Q732 1464 656 1441T537 1377T476 1282T459 1168Q459 1129 468 1101T498 1050T553 1009T637 972L888 880Q956 855 1011 824T1105 750T1165
651T1186 522Q1186 412 1152 311T1044 131T854 6T574 -41Q511 -41 452 -32T340 -6T246 31T173 74L214 217Q265 185 305 164T385 129T472 110T580 104Q795 104 901 195T1008 474Q1008 522 995 557T956 620T893 669T810 709L556 810Q519 824 489 840T432 874Q354
928 319 994T283 1139Q283 1214 304 1278T363 1394T452 1486T562 1554T685 1595T814 1609Q938 1609 1044 1578T1251 1480L1199 1341Z" />
<glyph unicode="T" glyph-name="T" horiz-adv-x="1003" d="M1220 1440H794L592 0H419L620 1440H193L213 1577H1239L1220 1440Z" />
<glyph unicode="U" glyph-name="U" horiz-adv-x="1373" d="M717 93Q827 93 906 124T1040 227T1132 417T1193 709L1317 1577H1489L1367 713Q1346 564 1312 450T1231 253T1127 113T1002 23T859 -25T700 -40Q575 -40 479 1T317 119T219 305T185 552Q185 559 185 566T186
586T189 618T194 666Q198 706 206 774T230 949T266 1211T318 1577H490Q460 1362 439 1206T402 939T378 759T364 647Q361 617 359 597T357 563T356 540T355 522Q355 432 372 354T432 217T543 126T717 93Z" />
<glyph unicode="V" glyph-name="V" horiz-adv-x="1227" d="M201 1578L404 104L1020 1577H1196L520 0H273L34 1578H201Z" />
<glyph unicode="W" glyph-name="W" horiz-adv-x="2002" d="M964 1578H1237L1311 94L1810 1577H1975L1423 0H1164L1104 1501L571 0H298L303 1577H455L452 90L964 1578Z" />
<glyph unicode="X" glyph-name="X" horiz-adv-x="1199" d="M817 800L1152 0H957L704 677L228 0H33L623 800L286 1577H459L739 914L1228 1577H1401L817 800Z" />
<glyph unicode="Y" glyph-name="Y" horiz-adv-x="1138" d="M652 630L1182 1572H1349L719 484L651 0H481L553 515L235 1572H386L652 630Z" />
<glyph unicode="Z" glyph-name="Z" horiz-adv-x="1091" d="M1278 1572L1257 1422L284 138H1078L1058 0H105L128 176L1088 1440H305L325 1572H1278Z" />
<glyph unicode="[" glyph-name="bracketleft" horiz-adv-x="1193" d="M505 1580H1116L1099 1442H659L475 138H915L899 0H284L505 1580Z" />
<glyph unicode="\" glyph-name="backslash" horiz-adv-x="794" d="M455 1731L772 -141L633 -169L312 1710L455 1731Z" />
<glyph unicode="]" glyph-name="bracketright" horiz-adv-x="1133" d="M455 1580H1067L844 0H228L246 138H686L874 1442H438L455 1580Z" />
<glyph unicode="^" glyph-name="asciicircum" horiz-adv-x="1294" d="M747 871H854L961 347H831L769 665L573 347H420L747 871Z" />
<glyph unicode="_" glyph-name="underscore" horiz-adv-x="1168" d="M972 -111H102L121 25H994L972 -111Z" />
<glyph unicode="`" glyph-name="grave" horiz-adv-x="725" d="M444 148H374L141 762H399L444 148Z" />
<glyph unicode="a" glyph-name="a" horiz-adv-x="1093" d="M1133 1066L980 0H855L864 197Q804 92 715 36T523 -21Q429 -21 363 12T256 103T195 236T176 400Q176 477 196 564T254 737T346 900T469 1037T619 1132T793 1168Q825 1168 864 1161T943 1143T1019 1118T1080
1093L1133 1066ZM330 404Q330 324 344 267T386 174T458 121T560 104Q611 104 658 125T746 177T816 243T864 305L968 1002Q969 1003 954 1009T913 1022T855 1034T792 1040Q735 1040 679 1016T572 950T476 848T400 719T349 568T330 404Z" />
<glyph unicode="b" glyph-name="b" horiz-adv-x="1099" d="M1123 740Q1123 663 1110 577T1071 406T1003 244T906 108T779 14T619 -21Q428 -21 317 184L267 0H155L385 1640L548 1652L435 859Q456 913 497 968T592 1067T704 1140T819 1168Q915 1168 974 1131T1066
1032T1110 893T1122 732Q1122 734 1122 736T1123 740ZM629 104Q701 104 754 143T846 244T908 381T946 528T965 659T970 749Q970 801 968 853T950 947T902 1015T806 1041Q770 1041 732 1025T655 982T581 921T513 850T456 779T413 714Q413 716 413 716T414 719L352
280Q351 281 358 268T382 236T421 193T476 150T545 117T629 104Z" />
<glyph unicode="c" glyph-name="c" horiz-adv-x="988" d="M176 415Q176 586 222 725T348 963T531 1114T750 1168Q847 1168 931 1138T1085 1045L1014 920Q995 943 966 965T901 1004T828 1031T752 1041Q669 1041 606 1007T496 918T419 791T371 647Q357 584 351 525T344
414Q344 257 406 181T578 104Q641 104 695 119T804 164Q830 178 856 196T908 234L938 112Q750 -21 559 -21Q480 -21 411 4T289 81T207 216T176 415Z" />
<glyph unicode="d" glyph-name="d" horiz-adv-x="1095" d="M678 1168Q731 1168 775 1149T855 1103T915 1044T956 987L1046 1639L1208 1652L974 0H867L869 183Q833 139 791 102T702 38T608 -5T512 -21Q419 -21 355 14T252 109T195 248T177 416Q177 488 189 572T228
739T294 900T390 1037T517 1132T678 1168ZM328 402Q328 378 330 352T337 300Q344 262 357 227T392 164T448 121T530 104Q581 104 630 122T722 168T799 226T856 281Q876 420 890 519T913 685T928 791T937 851T940 876T941 879Q942 878 934 890T909 919T868 958T814
997T746 1028T667 1040Q600 1040 550 1005T461 914T398 788T357 647T335 512T328 402Z" />
<glyph unicode="e" glyph-name="e" horiz-adv-x="1058" d="M375 670Q517 688 614 703T775 730T873 753T924 773T943 790T946 807Q946 922 896 980T755 1039Q683 1039 622 1015T513 943T429 827T375 670ZM938 102Q896 72 850 49T755 11T660 -13T571 -21Q473 -21
399 9T276 95T201 231T176 411Q176 492 191 579T238 751T316 911T425 1044T563 1134T732 1168Q916 1168 1002 1076T1089 788Q1089 764 1085 743T1059 701T992 663T865 626T660 591T357 557Q349 512 346 474T343 400Q343 248 414 177T610 105Q685 105 758 140T903
233L938 102Z" />
<glyph unicode="f" glyph-name="f" horiz-adv-x="737" d="M760 1443Q731 1443 706 1433T658 1392T616 1303T580 1147H889L881 1073H570L416 0H259L413 1073H253L260 1147H423Q443 1249 466 1320T517 1440T574 1515T637 1557T706 1575T781 1579Q822 1579 857 1564T917
1532T956 1499T969 1484L895 1367Q895 1367 886 1378Q877 1390 860 1404T817 1431T760 1443Z" />
<glyph unicode="g" glyph-name="g" horiz-adv-x="1099" d="M409 788Q409 734 427 699T476 642T546 612T629 603Q785 601 859 664T934 858Q934 904 915 939T865 998T792 1034T707 1047Q632 1047 576 1029T483 977T428 895T409 788ZM221 -99Q221 -183 298 -220T538
-257Q730 -257 829 -208T928 -62Q928 -15 904 15T842 65T761 93T678 108L413 141Q314 81 268 23T221 -99ZM1074 854Q1074 785 1048 724T972 613T848 528T682 474L409 419Q301 398 304 342Q303 316 321 298T369 268T439 249T521 237T604 228T679 219Q772 205 842
186T960 135T1031 54T1055 -67Q1055 -138 1028 -189T955 -276T851 -334T732 -368T612 -385T505 -389Q417 -389 341 -371T208 -319T119 -238T86 -131Q91 -59 119 -9T184 76Q202 94 227 111T275 140T313 160T328 167Q314 173 302 179T277 192Q257 203 238 217T209
246Q186 286 186 347Q184 473 388 519L499 545Q446 554 403 574T329 624T280 696T263 789Q263 871 293 940T378 1060T512 1139T686 1168Q763 1168 825 1149T952 1085Q1003 1110 1041 1126T1114 1154Q1149 1165 1182 1170T1250 1178L1252 1028H997Q1019 995 1034
970T1058 924T1070 887T1074 854Z" />
<glyph unicode="h" glyph-name="h" horiz-adv-x="1169" d="M555 1653L459 965Q523 1029 574 1068T670 1130T759 1160T851 1168Q924 1168 982 1149T1082 1091T1145 993T1167 854Q1167 821 1165 787T1157 714L1057 0H889L989 712Q992 734 994 762T997 817Q997 931
956 986T820 1041Q760 1041 701 1022T592 976T504 920T446 870L324 0H155L385 1641L555 1653Z" />
<glyph unicode="i" glyph-name="i" horiz-adv-x="534" d="M587 1486Q587 1458 579 1433T555 1390T519 1360T472 1349Q430 1349 408 1376T386 1441Q386 1466 395 1489T420 1531T457 1561T504 1572Q541 1572 564 1547T587 1484V1486ZM361 0H199L360 1147H523L361 0Z" />
<glyph unicode="j" glyph-name="j" horiz-adv-x="581" d="M642 1486Q642 1458 634 1433T610 1390T573 1360T526 1349Q484 1349 462 1376T440 1441Q440 1466 449 1489T474 1531T511 1561T558 1572Q596 1572 619 1547T642 1484V1486ZM43 -265Q104 -226 144 -183T209
-89T250 27T277 173L415 1147H583L444 151Q429 47 396 -40T315 -196T205 -309T68 -374L43 -265Z" />
<glyph unicode="k" glyph-name="k" horiz-adv-x="1021" d="M375 429L312 0H155L385 1640L545 1652L398 590L990 1147H1174L595 600L994 0H832L490 518L375 429Z" />
<glyph unicode="l" glyph-name="l" horiz-adv-x="485" d="M577 1652L344 0H186L417 1637L577 1652Z" />
<glyph unicode="m" glyph-name="m" horiz-adv-x="1716" d="M1467 1168Q1594 1168 1653 1094T1714 871Q1714 863 1713 852T1709 811T1698 727T1677 578T1643 343T1594 0H1437Q1466 202 1486 343T1519 578T1539 728T1550 813T1554 855T1555 875Q1555 958 1529 999T1429
1041Q1379 1041 1329 1022T1232 963T1142 860T1064 712Q1064 717 1065 718L961 0H807Q837 205 857 347T891 584T911 731T921 810Q925 841 925 852T926 872Q926 956 899 998T798 1041Q750 1041 699 1019T598 954T501 852T414 716Q415 717 415 723L312 0H155L319
1148H435L433 881Q469 955 515 1009T613 1098T720 1151T832 1168Q1078 1168 1078 872Q1109 956 1156 1012T1256 1103T1365 1153T1467 1168Z" />
<glyph unicode="n" glyph-name="n" horiz-adv-x="1169" d="M888 0Q915 191 933 323T963 543T981 680T990 754Q993 782 993 792T994 811Q994 863 986 905T957 978T904 1024T821 1041Q777 1041 721 1021T611 973T512 914T445 862L325 0H155L316 1147H436L434 959Q467
995 518 1032T629 1100T751 1149T868 1168Q1015 1168 1090 1091T1166 854Q1166 846 1166 838T1164 817T1161 787T1156 742Q1152 706 1145 649T1125 503T1096 292T1056 0H888Z" />
<glyph unicode="o" glyph-name="o" horiz-adv-x="1150" d="M176 428Q176 519 192 609T242 782T325 935T440 1057T588 1138T769 1168Q849 1168 910 1150T1017 1101T1092 1028T1140 937T1165 835T1173 729Q1173 561 1126 423T997 186T807 33T579 -21Q489 -21 415
10T287 98T205 239T176 428ZM602 104Q679 104 739 132T845 206T922 314T973 443T1002 579T1011 708Q1011 775 998 835T955 942T875 1014T749 1041Q672 1041 612 1013T506 936T428 826T376 696T347 560T338 432Q338 365 350 306T393 201T474 130T602 104Z" />
<glyph unicode="p" glyph-name="p" horiz-adv-x="1161" d="M1185 716Q1185 633 1172 547T1131 378T1061 224T959 97T825 11T656 -21Q608 -21 563 -6T479 34T409 93T356 165L268 -468L95 -491L324 1147H454L452 948Q490 993 534 1033T626 1103T721 1150T817 1168Q896
1168 963 1145T1080 1068T1157 928T1185 716ZM1022 718Q1021 760 1018 796T1006 864Q985 955 938 998T818 1041Q739 1041 644 1000T455 873L373 279Q394 245 430 214T508 158T592 119T670 104Q743 104 797 134T891 213T955 326T995 458T1016 594T1022 718Z" />
<glyph unicode="q" glyph-name="q" horiz-adv-x="1136" d="M699 1168Q760 1168 809 1146T897 1091T962 1021T1004 954L1061 1148H1171L939 -484L778 -507L874 163Q843 125 804 92T720 33T630 -6T539 -21Q445 -21 381 16T278 114T222 254T205 418Q205 478 214 550T244
697T295 845T371 981Q400 1022 434 1056T510 1115T598 1154T699 1168ZM356 400Q357 374 359 348T367 296Q374 257 388 223T425 162T481 120T559 104Q610 104 659 121T752 164T831 220T890 274L972 862Q954 886 925 917T858 975T775 1022T679 1041Q628 1041 584
1015T505 942T441 833T395 699T366 552T356 400Z" />
<glyph unicode="r" glyph-name="r" horiz-adv-x="709" d="M434 880Q467 943 511 996T602 1087T696 1146T781 1167Q794 1167 808 1166T833 1163T851 1160T857 1158L843 1006Q844 1006 839 1007T826 1009T808 1011T789 1012Q735 1012 681 987T578 925T488 844T420
766L312 0H155L317 1147H436L434 880Z" />
<glyph unicode="s" glyph-name="s" horiz-adv-x="916" d="M209 874Q209 947 239 1002T321 1094T442 1149T591 1168Q645 1168 696 1156T792 1126T877 1086T948 1044L891 934Q861 952 825 970T750 1005T669 1031T588 1041Q538 1041 496 1032T422 1003T372 956T354
892Q354 860 361 838T383 798T424 766T486 736L632 676Q681 656 727 630T811 568T870 488T893 385Q893 287 857 212T761 84T625 6T468 -21Q401 -21 343 -9T238 21T156 62T100 104L154 204Q203 164 278 134T457 104Q517 104 568 120T656 168T715 246T736 353Q736
378 728 399T703 438T656 473T585 508L433 571Q378 593 337 619T267 680T224 763T209 874Z" />
<glyph unicode="t" glyph-name="t" horiz-adv-x="749" d="M480 114Q515 114 554 129T625 163Q644 174 662 186T700 213L774 112Q751 94 727 78T676 48Q631 24 577 4T465 -16Q418 -16 380 0T315 48T272 124T257 224Q257 230 257 239T262 270Q264 284 266 306T274
362L375 1073H219L229 1147H385L444 1558L605 1602L542 1147H798L787 1073H531L413 212Q410 191 414 173T429 142T452 122T480 114Z" />
<glyph unicode="u" glyph-name="u" horiz-adv-x="1156" d="M482 1147Q482 1150 477 1110T462 1003T442 852T419 684T398 525T381 399Q377 368 375 349T373 327Q373 248 395 197Q417 149 456 127T552 104Q643 104 728 146T904 270L1027 1147H1195L1035 0H909Q910
45 910 87T910 175Q813 75 720 27T532 -21Q370 -21 287 57T204 298Q204 302 206 322T212 375T221 450T232 541Q240 604 249 674T267 812T284 942T299 1050T309 1123T313 1147H482Z" />
<glyph unicode="v" glyph-name="v" horiz-adv-x="945" d="M580 0H397L202 1147H353L507 114L928 1147H1093L580 0Z" />
<glyph unicode="w" glyph-name="w" horiz-adv-x="1418" d="M922 0L870 1027L504 0H323L202 1146H349L435 121L792 1146H961L1034 121L1407 1146H1566L1106 0H922Z" />
<glyph unicode="x" glyph-name="x" horiz-adv-x="1003" d="M600 474L257 0H71L536 572L249 1147H440L628 682L971 1147H1156L692 572L965 0H786L600 474Z" />
<glyph unicode="y" glyph-name="y" horiz-adv-x="1018" d="M81 -339Q156 -329 207 -304Q246 -286 279 -256T343 -182T404 -82T466 43L432 190L214 1147H377L559 232L983 1147H1157L631 95Q609 51 586 1T537 -101T481 -203T416 -296T338 -374T244 -430Q185 -453
106 -458L81 -339Z" />
<glyph unicode="z" glyph-name="z" horiz-adv-x="833" d="M773 1022H260L278 1147H933L912 985L240 126H774L776 0H90L110 160L773 1022Z" />
<glyph unicode="{" glyph-name="braceleft" horiz-adv-x="918" d="M546 1002Q526 855 472 766T327 644Q352 632 375 611T416 559T444 485T455 390Q455 332 447 277T438 162Q438 119 445 79T468 9T510 -40T575 -57Q581 -55 590 -53T609 -48T624 -44T629 -42L604
-210Q594 -212 583 -214Q574 -216 565 -216T548 -217Q488 -217 439 -188T356 -108T304 10T285 154Q285 210 293 265T302 382Q302 411 299 434T290 477Q266 549 203 549L230 738Q296 738 338 810T400 1026Q420 1173 463 1264T566 1408T697 1478T844 1496L821 1330Q789
1330 759 1329T703 1318T652 1288T609 1232T573 1139T546 1002Z" />
<glyph unicode="|" glyph-name="bar" horiz-adv-x="535" d="M208 -109L475 1695H635L367 -109H208Z" />
<glyph unicode="}" glyph-name="braceright" horiz-adv-x="907" d="M513 877Q513 911 516 944T524 1012T533 1081T537 1153Q537 1211 527 1245T495 1299T440 1324T362 1330L389 1497Q446 1497 498 1485T591 1439T656 1344T681 1183Q681 1154 677 1116T669 1038T660
960T656 892Q656 738 743 738L713 549Q592 549 547 262Q531 161 506 87T448 -39T377 -125T297 -177T211 -203T123 -210L148 -42Q181 -42 210 -39T264 -26T310 6T350 64T384 155T411 286Q424 371 448 433T501 538T563 606T625 644Q513 693 513 877Z" />
<glyph unicode="~" glyph-name="asciitilde" horiz-adv-x="685" d="M575 123Q533 123 487 141T399 182T322 222T271 241Q236 241 221 213T198 127H55Q72 259 127 321T277 383Q324 383 364 364T441 322T511 279T577 260Q610 260 625 289T647 370H790Q773 242 721
183T575 123Z" />
<glyph unicode="&#xa1;" glyph-name="exclamdown" horiz-adv-x="774" d="M675 1580Q670 1554 666 1530T658 1481Q650 1433 646 1385T639 1286Q572 1286 505 1284T369 1279Q379 1354 386 1426T401 1577Q537 1577 675 1580ZM214 2L452 1180H547L424 2H214Z" />
<glyph unicode="&#xa2;" glyph-name="cent" horiz-adv-x="1108" d="M198 440Q198 565 226 686T312 907T458 1080T665 1179Q690 1184 715 1187T768 1192L783 1294L882 1295L867 1187Q928 1181 983 1164T1080 1126L1085 986Q1084 986 1068 994T1022 1013T947 1034T846
1050L717 117Q791 125 867 147L940 167L922 36Q871 19 813 3T698 -18L681 -133L584 -134L599 -20Q506 -19 432 12T305 102T226 246T198 440ZM744 1053Q745 1053 736 1054T720 1056Q662 1057 613 1032T523 961T453 856T401 726T370 582T359 434Q359 277 425 201T620
116L744 1053Z" />
<glyph unicode="&#xa3;" glyph-name="sterling" horiz-adv-x="1140" d="M699 1185Q617 1185 562 1161T473 1097T425 1008T410 909Q410 834 433 778T484 687H900L884 576H485Q468 461 438 379T377 242T322 161T293 129H885L867 0H126L141 134Q151 142 178 170T236
254Q268 308 297 387T343 576H157L173 686H337Q300 735 283 796T265 911Q265 992 300 1066T394 1197T527 1287T680 1321Q759 1321 822 1307T933 1273T1014 1229T1068 1188L1007 1061Q984 1079 950 1101T876 1141T790 1172T699 1185Z" />
<glyph unicode="&#xa4;" glyph-name="currency" horiz-adv-x="1309" d="M1005 1031Q1005 1081 987 1124T939 1198T869 1248T785 1266Q728 1266 672 1238T570 1164T496 1058T467 934Q467 881 485 838T534 763T606 714T694 697Q751 697 806 726T906 802T977 909T1005
1031ZM1107 1213Q1138 1155 1138 1063Q1137 894 1028 757L1186 555L1054 431L894 633Q781 558 661 558Q549 558 470 619L268 431L171 555L370 742Q336 819 336 904Q336 1066 443 1206L291 1400L424 1523L576 1331Q688 1407 812 1407Q925 1407 1011 1339L1209 1523L1307
1400L1107 1213Z" />
<glyph unicode="&#xa5;" glyph-name="yen" horiz-adv-x="1139" d="M625 849L1102 1577H1254L717 745H974L955 614H678L663 484H937L918 352H645L595 0H425L475 352H196L215 484H495L516 614H233L251 745H513L213 1577H365L625 849Z" />
<glyph unicode="&#xa6;" glyph-name="brokenbar" horiz-adv-x="539" d="M157 7L255 693H423L327 7H157ZM281 885L375 1568H549L451 885H281Z" />
<glyph unicode="&#xa7;" glyph-name="section" horiz-adv-x="1047" d="M268 1223Q268 1295 295 1357T374 1465T497 1537T661 1564Q706 1564 755 1553T848 1524T926 1486T978 1449L907 1316Q794 1424 651 1424Q577 1424 531 1408T457 1366T420 1311T410 1252Q410
1216 438 1190T539 1134L675 1078Q748 1048 796 1018T874 955T916 886T928 807Q928 721 899 666T827 580T738 535T657 519Q855 441 854 273Q854 199 830 138T763 30T658 -48T521 -91Q498 -94 475 -96T426 -99Q395 -99 360 -93T290 -78T221 -55T161 -26Q142 -16
127 -6T103 16L176 150Q189 136 203 124T235 102Q283 71 335 57T430 43Q514 43 567 63T650 114T690 181T701 248Q701 278 692 301T665 342T619 374T555 403L415 456Q352 480 310 505T242 560T206 623T195 699Q195 760 210 805T249 882T304 934T365 965T424 982T471
990Q413 1016 374 1042T312 1097T278 1156T268 1223ZM579 905Q334 905 334 723Q334 594 535 594Q612 594 660 611T736 656T773 715T783 776Q783 821 762 847T710 885T643 901T579 905Z" />
<glyph unicode="&#xa8;" glyph-name="dieresis" horiz-adv-x="931" d="M386 270Q386 241 375 215T346 168T304 135T257 122Q212 122 186 152T160 227Q160 254 171 280T200 327T243 359T293 372Q335 372 360 343T386 268V270ZM792 268Q792 239 781 213T752 166T710
133T663 120Q618 120 592 150T565 225Q565 252 576 278T605 325T648 357T698 370Q740 370 766 341T791 266Q791 267 791 267T792 268Z" />
<glyph unicode="&#xa9;" glyph-name="copyright" horiz-adv-x="1853" d="M843 97Q939 97 1032 125T1208 205T1361 330T1483 493T1563 686T1592 903Q1592 1020 1556 1126T1450 1314T1276 1443T1040 1491Q940 1491 846 1462T667 1379T513 1252T392 1087T313 892T284
677Q284 550 324 444T438 260T615 140T843 97ZM1054 1606Q1207 1606 1330 1552T1540 1403T1673 1182T1720 912Q1720 820 1701 731T1646 560T1562 404T1453 268Q1391 203 1319 151T1167 61T1001 5T823 -15Q680 -15 558 34T347 174T208 389T158 666Q158 789 191 906T283
1127T425 1320T607 1471T820 1570T1054 1606ZM645 670Q646 622 653 584T675 513Q733 395 899 395Q960 395 1024 412T1160 462L1136 351Q1063 314 999 297T877 280Q778 280 709 312T596 399T533 526T513 680Q513 813 549 928T653 1127T814 1259T1023 1307Q1068 1307
1114 1299T1205 1273Q1221 1267 1235 1261T1264 1246L1257 1139Q1258 1140 1240 1148T1188 1167T1110 1185T1010 1194Q968 1194 931 1185Q857 1168 803 1121T714 1005T662 850T645 670Z" />
<glyph unicode="&#xaa;" glyph-name="ordfeminine" horiz-adv-x="1090" d="M797 828Q667 668 496 668Q367 668 303 727T238 901Q238 980 265 1045T341 1158T461 1232T618 1258Q643 1258 673 1255T734 1245T790 1232T835 1218Q844 1286 847 1321T851 1380Q851 1418
843 1443T816 1484T767 1506T693 1513Q639 1513 588 1499T496 1467T433 1436T410 1423L375 1532Q409 1551 447 1570T526 1604T612 1628T703 1638Q781 1638 836 1623T926 1576T977 1494T993 1373Q993 1364 993 1352T989 1313T981 1243T965 1125T941 945T905 686H797V828ZM824
1141Q776 1149 735 1153T658 1158Q390 1158 390 924Q390 781 547 781Q610 781 668 813T791 903L824 1141ZM238 525H874L856 396H220L238 525Z" />
<glyph unicode="&#xab;" glyph-name="guillemotleft" horiz-adv-x="1506" d="M1343 840L892 577L1267 307L1238 107L735 482L761 664L1371 1040L1343 840ZM787 840L337 577L712 307L683 107L180 482L206 664L816 1040L787 840Z" />
<glyph unicode="&#xac;" glyph-name="logicalnot" horiz-adv-x="1595" d="M1527 1185L1408 339H1222L1316 1014H230L255 1185H1527Z" />
<glyph unicode="&#xad;" glyph-name="uni00AD" horiz-adv-x="773" d="M685 504H159L176 627H702L685 504Z" />
<glyph unicode="&#xae;" glyph-name="registered" horiz-adv-x="1258" d="M765 1081Q767 1079 774 1069T790 1046Q800 1032 813 1015L899 855L804 808Q789 840 777 869T754 926L692 1072H648L611 830H520L603 1400H705Q833 1400 888 1369T944 1269Q944 1228 931
1198T895 1145T838 1107T765 1081ZM785 1537Q682 1537 595 1493T443 1378T343 1218T307 1038Q307 957 334 890T409 775T525 701T673 675Q766 675 851 714T1001 822T1104 980T1143 1171Q1143 1250 1117 1317T1043 1433T929 1509T785 1537ZM710 1144Q782 1144 818
1171T854 1263Q854 1282 846 1294T817 1314T765 1324T684 1327L660 1144H710ZM214 1027Q213 1106 234 1181T295 1324T389 1447T509 1544T647 1607T798 1630Q895 1630 975 1596T1114 1502T1204 1361T1236 1183Q1236 1105 1215 1031T1156 890T1065 767T947 671T807
607T651 584Q557 584 477 618T339 711T247 853T214 1031V1027Z" />
<glyph unicode="&#xaf;" glyph-name="overscore" horiz-adv-x="921" d="M740 0H93L110 138H758L740 0Z" />
<glyph unicode="0;" glyph-name="degree" horiz-adv-x="612" d="M372 1096Q341 1096 315 1083T270 1047T241 997T230 937Q229 889 256 857T334 825Q364 825 389 838T433 874T462 924T473 984Q473 1032 447 1064T372 1096ZM165 926Q165 974 182 1016T228 1090T298
1140T383 1159Q419 1159 447 1147T496 1113T527 1062T538 998Q538 949 522 906T477 831T410 781T326 762Q288 762 259 774T208 808T176 860T165 926Z" />
<glyph unicode="1;" glyph-name="plusminus" horiz-adv-x="1014" d="M793 -59H149L169 80H812L793 -59ZM903 511H612L563 166H436L487 511H195L213 639H504L555 985H677L629 639H922L903 511Z" />
<glyph unicode="2;" glyph-name="uni00B2" horiz-adv-x="1104" d="M842 855Q842 927 799 973Q737 1039 596 1039Q566 1039 531 1034T460 1019T387 998T316 974L278 1093Q296 1102 314 1109T350 1125Q423 1152 493 1163T638 1174Q725 1174 789 1151T896 1086T959
984T980 851Q979 611 670 381L310 112H844L824 -35H94L112 105Q131 119 158 140T227 194T332 275T483 391L595 477Q641 512 685 556T764 650T820 752T842 855Z" />
<glyph unicode="3;" glyph-name="uni00B3" horiz-adv-x="1075" d="M518 583Q621 583 686 611T787 682T836 774T849 865Q849 958 789 997T601 1037Q568 1037 532 1032T458 1018T383 997T312 972L286 1102L316 1116Q337 1125 369 1136T442 1158T530 1176T628
1183Q668 1183 711 1178T796 1161T875 1127T941 1074T985 999T1002 898Q1002 827 987 773T947 678T889 609T820 561T747 531T677 515Q716 505 762 485T847 428T913 337T939 203Q939 87 893 4T775 -132T616 -210T444 -235Q382 -235 327 -226T225 -201T141 -169T76
-137Q100 -90 113 -65T132 -29T140 -17T141 -17Q146 -17 174 -28T247 -53T349 -78T469 -90Q557 -90 616 -64T711 5T762 98T777 201Q778 307 709 366T498 443L518 583Z" />
<glyph unicode="4;" glyph-name="acute" horiz-adv-x="730" d="M319 120H190L382 738H614L319 120Z" />
<glyph unicode="5;" glyph-name="uni00B5" horiz-adv-x="1146" d="M210 -290L71 -270L261 1110H406Q380 927 362 799T333 584T315 446T305 367T302 328T301 308Q301 205 341 158T466 110Q524 110 575 126T669 167T745 220T800 272L916 1110H1088L932 4L804
-12V156Q627 -32 444 -32Q397 -32 364 -22T310 2T276 32T258 62L210 -290Z" />
<glyph unicode="6;" glyph-name="paragraph" horiz-adv-x="1115" d="M1101 1576L879 0H710L911 1427H785L584 0H411L540 914Q461 914 388 927T258 972T167 1059T133 1195Q133 1276 153 1335T209 1437T294 1507T403 1549T530 1570T669 1576H1101Z" />
<glyph unicode="7;" glyph-name="middot" horiz-adv-x="516" d="M334 781Q376 781 400 753T425 679Q425 650 414 624T385 577T343 544T295 531Q250 531 225 560T200 635Q200 663 211 689T240 735T283 768T334 781Z" />
<glyph unicode="8;" glyph-name="cedilla" horiz-adv-x="543" d="M35 -528Q35 -518 35 -509T37 -489L39 -417Q77 -436 113 -447T180 -463Q202 -466 221 -466Q261 -466 287 -455T330 -426T352 -388T359 -350Q359 -329 343 -309T292 -274T208 -248T88 -238L167
23H281Q247 -56 230 -99T210 -150Q247 -150 293 -157T381 -183T450 -238T479 -330V-328Q479 -385 457 -431T398 -510T313 -560T213 -578Q159 -578 116 -565T35 -528Z" />
<glyph unicode="9;" glyph-name="uni00B9" horiz-adv-x="832" d="M301 -35L451 1036L226 944L199 1058L433 1144H626L461 -35H301Z" />
<glyph unicode="a;" glyph-name="ordmasculine" horiz-adv-x="1179" d="M569 670Q485 670 423 697T318 773T256 892T235 1045Q235 1098 244 1162T276 1293T334 1421T422 1531T544 1609T705 1638Q789 1638 851 1611T956 1533T1019 1413T1040 1258Q1040 1194
1029 1126T993 993T931 869T841 766T721 696T569 670ZM587 795Q648 795 694 818T775 878T832 964T868 1063T888 1164T894 1255Q894 1375 844 1443T688 1512Q628 1512 582 1490T502 1430T444 1344T407 1245T386 1143T380 1050Q380 929 430 862T587 795ZM232 515H868L850
386H213L232 515Z" />
<glyph unicode="b;" glyph-name="guillemotright" horiz-adv-x="1505" d="M797 840L825 1041L1328 664L1303 482L694 107L723 307L1173 576L797 840ZM242 840L270 1041L773 664L748 482L139 107L167 307L618 576L242 840Z" />
<glyph unicode="c;" glyph-name="onequarter" horiz-adv-x="1814" d="M156 -30L1488 1355L1587 1261L253 -124L156 -30ZM1524 941L1643 911L1491 137H1643L1621 31H1469L1417 -232L1272 -256L1328 31H798V138L1524 941ZM950 136H1349L1470 700L950 136ZM402
575L570 1426L383 1353L364 1441L620 1535L743 1510L557 575H402Z" />
<glyph unicode="d;" glyph-name="onehalf" horiz-adv-x="2072" d="M181 -30L1513 1355L1612 1261L278 -124L181 -30ZM454 575L621 1426L435 1353L416 1441L671 1535L795 1510L609 575H454ZM1446 195Q1483 223 1533 258T1628 335T1705 428T1737 535Q1737 593
1692 621T1569 650Q1540 650 1503 646T1425 634T1344 617T1269 599L1301 742Q1314 747 1328 751T1358 760Q1406 772 1468 780T1615 789Q1702 789 1758 768T1848 713T1894 640T1907 560Q1907 504 1890 455T1835 357T1735 253T1582 133L1355 -32H1767L1737 -181H1099L1127
-46L1446 195Z" />
<glyph unicode="e;" glyph-name="threequarters" horiz-adv-x="2163" d="M317 745Q340 733 368 720T429 697T500 679T583 672Q638 672 686 688T768 735T823 806T843 899Q843 972 790 1015T619 1072L645 1207Q691 1207 740 1219T831 1257T899 1323T926 1418Q926
1478 879 1509T729 1541Q701 1541 669 1537T603 1525T540 1507T484 1484L461 1611Q464 1611 465 1612Q474 1616 501 1626T568 1648T657 1668T760 1677Q810 1677 867 1667T972 1631T1052 1562T1084 1451Q1084 1393 1067 1348T1023 1269T963 1210T896 1171T833 1149T784
1142Q817 1135 856 1120T928 1077T983 1005T1006 897Q1006 832 986 780T930 689T849 621T751 575T645 549T542 540Q489 540 443 548T359 568T292 593T241 618L317 745Z" />
<glyph unicode="f;" glyph-name="questiondown" horiz-adv-x="1043" d="M326 321Q326 277 339 245T380 191T454 158T566 147Q608 147 651 154T734 174T811 200T878 228L932 94Q896 78 855 62T766 32T667 10T555 1Q444 1 370 25T250 92T186 191T167 312Q167
404 202 483T292 627T414 745T545 837T663 901T745 939L773 1093H912L882 846Q865 839 846 831T804 811Q757 788 704 759T597 694T495 617T409 529T349 430T326 321ZM1037 1523Q1026 1448 1019 1376T1004 1225Q937 1225 870 1223T734 1218Q744 1293 751 1366T766
1517Q833 1517 899 1519T1037 1523Z" />
<glyph unicode="0;" glyph-name="Agrave" horiz-adv-x="1295" d="M899 1489L709 1076L435 481H1038L953 1083L899 1489ZM773 1577H1050L1277 0H1104L1051 382H389L214 0H43L773 1577ZM1051 1708H981L748 2322H1006L1051 1708Z" />
<glyph unicode="1;" glyph-name="Aacute" horiz-adv-x="1295" d="M899 1489L709 1076L435 481H1038L953 1083L899 1489ZM773 1577H1050L1277 0H1104L1051 382H389L214 0H43L773 1577ZM822 1680H693L885 2298H1117L822 1680Z" />
<glyph unicode="2;" glyph-name="Acircumflex" horiz-adv-x="1295" d="M899 1489L709 1076L435 481H1038L953 1083L899 1489ZM773 1577H1050L1277 0H1104L1051 382H389L214 0H43L773 1577ZM955 2203H1062L1170 1679H1040L977 1997L782 1679H629L955 2203Z" />
<glyph unicode="3;" glyph-name="Atilde" horiz-adv-x="1295" d="M899 1489L709 1076L435 481H1038L953 1083L899 1489ZM773 1577H1050L1277 0H1104L1051 382H389L214 0H43L773 1577ZM1080 1680Q1031 1680 982 1698T889 1739T806 1779T740 1798Q727 1798 715
1796T692 1785T675 1758T668 1706H525Q525 1766 542 1810T589 1883T659 1926T747 1940Q794 1940 837 1922T921 1882T997 1842T1065 1823Q1082 1823 1095 1826T1118 1839T1133 1867T1138 1915H1279Q1279 1846 1264 1801T1221 1729T1158 1691T1080 1680Z" />
<glyph unicode="4;" glyph-name="Adieresis" horiz-adv-x="1295" d="M899 1489L709 1076L435 481H1038L953 1083L899 1489ZM773 1577H1050L1277 0H1104L1051 382H389L214 0H43L773 1577ZM813 1830Q813 1801 802 1775T773 1728T731 1695T684 1682Q639 1682
613 1712T587 1787Q587 1814 598 1840T627 1887T670 1919T720 1932Q762 1932 787 1903T813 1828V1830ZM1219 1828Q1219 1799 1208 1773T1179 1726T1137 1693T1090 1680Q1045 1680 1019 1710T992 1785Q992 1812 1003 1838T1032 1885T1075 1917T1125 1930Q1167 1930
1193 1901T1218 1826Q1218 1827 1218 1827T1219 1828Z" />
<glyph unicode="5;" glyph-name="Aring" horiz-adv-x="1295" d="M899 1489L709 1076L435 481H1038L953 1083L899 1489ZM773 1577H1050L1277 0H1104L1051 382H389L214 0H43L773 1577ZM917 1996Q890 1996 869 1985T832 1954T808 1910T799 1859Q799 1817 819
1790T885 1762Q910 1762 931 1773T969 1804T993 1848T1002 1899Q1002 1941 981 1968T917 1996ZM713 1843Q713 1891 730 1933T776 2008T846 2058T931 2077Q967 2077 996 2064T1047 2029T1079 1976T1091 1911Q1091 1862 1074 1820T1028 1747T959 1698T874 1680Q837
1680 808 1692T757 1725T725 1777T713 1843Z" />
<glyph unicode="6;" glyph-name="AE" horiz-adv-x="1978" d="M1236 886H1884L1871 779H1220L1128 138H1883L1865 0H948L1003 384H474L225 0H43L1092 1572H2076L2057 1441H1314L1236 886ZM1017 481L1147 1432L555 481H1017Z" />
<glyph unicode="7;" glyph-name="Ccedilla" horiz-adv-x="1168" d="M219 530Q219 667 241 800T307 1053T414 1275T560 1451T743 1567T960 1609Q1000 1609 1040 1607T1127 1597T1231 1573T1364 1530L1301 1392Q1243 1415 1198 1429T1115 1451T1046 1461T985
1464Q880 1464 796 1427T647 1324T536 1171T459 979T415 765T401 541Q401 316 490 210T756 104Q816 104 913 131T1131 211L1160 78Q1103 55 1051 34T947 -4T843 -31T733 -41Q604 -41 508 -4T347 107T251 286T219 530ZM567 -528Q567 -518 567 -509T569 -489L571
-417Q609 -436 645 -447T712 -463Q734 -466 753 -466Q793 -466 819 -455T862 -426T884 -388T891 -350Q891 -329 875 -309T824 -274T740 -248T620 -238L699 23H813Q779 -56 762 -99T742 -150Q779 -150 825 -157T913 -183T982 -238T1011 -330V-328Q1011 -385 989
-431T930 -510T845 -560T745 -578Q691 -578 648 -565T567 -528Z" />
<glyph unicode="8;" glyph-name="Egrave" horiz-adv-x="1080" d="M1058 0H147L368 1577H1268L1248 1439H522L444 887H1078L1063 779H429L339 138H1077L1058 0ZM1015 1708H945L712 2322H970L1015 1708Z" />
<glyph unicode="9;" glyph-name="Eacute" horiz-adv-x="1080" d="M1058 0H147L368 1577H1268L1248 1439H522L444 887H1078L1063 779H429L339 138H1077L1058 0ZM786 1680H657L849 2298H1081L786 1680Z" />
<glyph unicode="a;" glyph-name="Ecircumflex" horiz-adv-x="1080" d="M1058 0H147L368 1577H1268L1248 1439H522L444 887H1078L1063 779H429L339 138H1077L1058 0ZM859 2221H966L1074 1697H944L881 2015L686 1697H533L859 2221Z" />
<glyph unicode="b;" glyph-name="Edieresis" horiz-adv-x="1080" d="M1058 0H147L368 1577H1268L1248 1439H522L444 887H1078L1063 779H429L339 138H1077L1058 0ZM953 1830Q953 1801 942 1775T913 1728T871 1695T824 1682Q779 1682 753 1712T727 1787Q727
1814 738 1840T767 1887T810 1919T860 1932Q902 1932 927 1903T953 1828V1830ZM1359 1828Q1359 1799 1348 1773T1319 1726T1277 1693T1230 1680Q1185 1680 1159 1710T1132 1785Q1132 1812 1143 1838T1172 1885T1215 1917T1265 1930Q1307 1930 1333 1901T1358 1826Q1358
1827 1358 1827T1359 1828Z" />
<glyph unicode="c;" glyph-name="Igrave" horiz-adv-x="845" d="M176 110H361L549 1462H365L380 1578H926L910 1462H723L533 110H722L707 0H161L176 110ZM801 1708H731L498 2322H756L801 1708Z" />
<glyph unicode="d;" glyph-name="Iacute" horiz-adv-x="845" d="M176 110H361L549 1462H365L380 1578H926L910 1462H723L533 110H722L707 0H161L176 110ZM572 1680H443L635 2298H867L572 1680Z" />
<glyph unicode="e;" glyph-name="Icircumflex" horiz-adv-x="845" d="M176 110H361L549 1462H365L380 1578H926L910 1462H723L533 110H722L707 0H161L176 110ZM694 2221H801L909 1697H779L716 2015L521 1697H368L694 2221Z" />
<glyph unicode="f;" glyph-name="Idieresis" horiz-adv-x="845" d="M176 110H361L549 1462H365L380 1578H926L910 1462H723L533 110H722L707 0H161L176 110ZM739 1830Q739 1801 728 1775T699 1728T657 1695T610 1682Q565 1682 539 1712T513 1787Q513 1814
524 1840T553 1887T596 1919T646 1932Q688 1932 713 1903T739 1828V1830ZM1145 1828Q1145 1799 1134 1773T1105 1726T1063 1693T1016 1680Q971 1680 945 1710T918 1785Q918 1812 929 1838T958 1885T1001 1917T1051 1930Q1093 1930 1119 1901T1144 1826Q1144 1827
1144 1827T1145 1828Z" />
<glyph unicode="&#xd0;" glyph-name="Eth" horiz-adv-x="1319" d="M1354 1009Q1354 958 1350 888T1332 737T1294 570T1232 402T1138 247T1008 119T835 32T613 0H103L208 737H107L124 879H228L327 1572H837Q1098 1572 1225 1432T1354 1009ZM1177 1012Q1177 1124
1155 1203T1087 1331T974 1403T814 1426H476L400 879H775L758 737H380L297 144H637Q754 144 840 190T986 310T1083 479T1141 670T1169 856T1177 1012Z" />
<glyph unicode="&#xd1;" glyph-name="Ntilde" horiz-adv-x="1494" d="M1369 0H1099L907 484L523 1449L320 0H146L368 1578H637L829 1094L1212 128L1416 1578H1590L1369 0ZM1189 1680Q1140 1680 1091 1698T998 1739T915 1779T849 1798Q836 1798 824 1796T801 1785T784
1758T777 1706H634Q634 1766 651 1810T698 1883T768 1926T856 1940Q903 1940 946 1922T1030 1882T1106 1842T1174 1823Q1191 1823 1204 1826T1227 1839T1242 1867T1247 1915H1388Q1388 1846 1373 1801T1330 1729T1267 1691T1189 1680Z" />
<glyph unicode="&#xd2;" glyph-name="Ograve" horiz-adv-x="1446" d="M1481 1043Q1481 888 1456 747T1385 486T1271 269T1120 102T935 -4T722 -41Q606 -41 513 -9T355 91T255 262T219 509Q219 660 243 800T314 1063T425 1285T574 1458T757 1569T968 1609Q1110
1609 1208 1568T1366 1451T1454 1272T1481 1043ZM1302 1050Q1302 1136 1285 1211T1226 1343T1119 1431T954 1464Q853 1464 773 1422T632 1309T527 1143T455 941T414 723T401 506Q401 303 488 204T744 104Q838 104 916 142T1057 247T1165 405T1241 601T1287 820T1302
1050ZM1110 1708H1040L807 2322H1065L1110 1708Z" />
<glyph unicode="&#xd3;" glyph-name="Oacute" horiz-adv-x="1446" d="M1481 1043Q1481 888 1456 747T1385 486T1271 269T1120 102T935 -4T722 -41Q606 -41 513 -9T355 91T255 262T219 509Q219 660 243 800T314 1063T425 1285T574 1458T757 1569T968 1609Q1110
1609 1208 1568T1366 1451T1454 1272T1481 1043ZM1302 1050Q1302 1136 1285 1211T1226 1343T1119 1431T954 1464Q853 1464 773 1422T632 1309T527 1143T455 941T414 723T401 506Q401 303 488 204T744 104Q838 104 916 142T1057 247T1165 405T1241 601T1287 820T1302
1050ZM881 1680H752L944 2298H1176L881 1680Z" />
<glyph unicode="&#xd4;" glyph-name="Ocircumflex" horiz-adv-x="1446" d="M1481 1043Q1481 888 1456 747T1385 486T1271 269T1120 102T935 -4T722 -41Q606 -41 513 -9T355 91T255 262T219 509Q219 660 243 800T314 1063T425 1285T574 1458T757 1569T968 1609Q1110
1609 1208 1568T1366 1451T1454 1272T1481 1043ZM1302 1050Q1302 1136 1285 1211T1226 1343T1119 1431T954 1464Q853 1464 773 1422T632 1309T527 1143T455 941T414 723T401 506Q401 303 488 204T744 104Q838 104 916 142T1057 247T1165 405T1241 601T1287 820T1302
1050ZM1014 2203H1121L1229 1679H1099L1036 1997L841 1679H688L1014 2203Z" />
<glyph unicode="&#xd5;" glyph-name="Otilde" horiz-adv-x="1446" d="M1481 1043Q1481 888 1456 747T1385 486T1271 269T1120 102T935 -4T722 -41Q606 -41 513 -9T355 91T255 262T219 509Q219 660 243 800T314 1063T425 1285T574 1458T757 1569T968 1609Q1110
1609 1208 1568T1366 1451T1454 1272T1481 1043ZM1302 1050Q1302 1136 1285 1211T1226 1343T1119 1431T954 1464Q853 1464 773 1422T632 1309T527 1143T455 941T414 723T401 506Q401 303 488 204T744 104Q838 104 916 142T1057 247T1165 405T1241 601T1287 820T1302
1050ZM1139 1680Q1090 1680 1041 1698T948 1739T865 1779T799 1798Q786 1798 774 1796T751 1785T734 1758T727 1706H584Q584 1766 601 1810T648 1883T718 1926T806 1940Q853 1940 896 1922T980 1882T1056 1842T1124 1823Q1141 1823 1154 1826T1177 1839T1192 1867T1197
1915H1338Q1338 1846 1323 1801T1280 1729T1217 1691T1139 1680Z" />
<glyph unicode="&#xd6;" glyph-name="Odieresis" horiz-adv-x="1446" d="M1481 1043Q1481 888 1456 747T1385 486T1271 269T1120 102T935 -4T722 -41Q606 -41 513 -9T355 91T255 262T219 509Q219 660 243 800T314 1063T425 1285T574 1458T757 1569T968 1609Q1110
1609 1208 1568T1366 1451T1454 1272T1481 1043ZM1302 1050Q1302 1136 1285 1211T1226 1343T1119 1431T954 1464Q853 1464 773 1422T632 1309T527 1143T455 941T414 723T401 506Q401 303 488 204T744 104Q838 104 916 142T1057 247T1165 405T1241 601T1287 820T1302
1050ZM872 1830Q872 1801 861 1775T832 1728T790 1695T743 1682Q698 1682 672 1712T646 1787Q646 1814 657 1840T686 1887T729 1919T779 1932Q821 1932 846 1903T872 1828V1830ZM1278 1828Q1278 1799 1267 1773T1238 1726T1196 1693T1149 1680Q1104 1680 1078 1710T1051
1785Q1051 1812 1062 1838T1091 1885T1134 1917T1184 1930Q1226 1930 1252 1901T1277 1826Q1277 1827 1277 1827T1278 1828Z" />
<glyph unicode="&#xd7;" glyph-name="multiply" horiz-adv-x="1155" d="M713 546L961 233L858 134L609 449L271 134L197 231L533 544L285 857L388 955L637 641L973 955L1047 858L713 546Z" />
<glyph unicode="&#xd8;" glyph-name="Oslash" horiz-adv-x="1446" d="M1300 1049Q1300 1155 1275 1241T1186 1384L613 124Q642 115 674 110T743 105Q837 105 914 143T1054 248T1162 406T1239 601T1285 820T1300 1049ZM1481 1043Q1481 888 1456 747T1384 486T1270
269T1119 102T934 -4T720 -41Q625 -41 546 -20L490 -143L392 -98L446 21Q338 80 278 200T219 509Q219 660 243 800T314 1063T426 1285T576 1458T759 1569T970 1609Q1076 1609 1159 1585L1223 1721L1321 1680L1258 1543Q1319 1508 1361 1458T1430 1345T1469 1206T1481
1043ZM954 1462Q853 1462 773 1421T632 1308T528 1142T457 941T416 724T403 507Q403 389 431 310T518 179L1094 1441Q1034 1462 954 1462Z" />
<glyph unicode="&#xd9;" glyph-name="Ugrave" horiz-adv-x="1373" d="M717 93Q827 93 906 124T1040 227T1132 417T1193 709L1317 1577H1489L1367 713Q1346 564 1312 450T1231 253T1127 113T1002 23T859 -25T700 -40Q575 -40 479 1T317 119T219 305T185 552Q185
559 185 566T186 586T189 618T194 666Q198 706 206 774T230 949T266 1211T318 1577H490Q460 1362 439 1206T402 939T378 759T364 647Q361 617 359 597T357 563T356 540T355 522Q355 432 372 354T432 217T543 126T717 93ZM1117 1708H1047L814 2322H1072L1117 1708Z"
/>
<glyph unicode="&#xda;" glyph-name="Uacute" horiz-adv-x="1373" d="M717 93Q827 93 906 124T1040 227T1132 417T1193 709L1317 1577H1489L1367 713Q1346 564 1312 450T1231 253T1127 113T1002 23T859 -25T700 -40Q575 -40 479 1T317 119T219 305T185 552Q185
559 185 566T186 586T189 618T194 666Q198 706 206 774T230 949T266 1211T318 1577H490Q460 1362 439 1206T402 939T378 759T364 647Q361 617 359 597T357 563T356 540T355 522Q355 432 372 354T432 217T543 126T717 93ZM888 1680H759L951 2298H1183L888 1680Z"
/>
<glyph unicode="&#xdb;" glyph-name="Ucircumflex" horiz-adv-x="1373" d="M717 93Q827 93 906 124T1040 227T1132 417T1193 709L1317 1577H1489L1367 713Q1346 564 1312 450T1231 253T1127 113T1002 23T859 -25T700 -40Q575 -40 479 1T317 119T219 305T185 552Q185
559 185 566T186 586T189 618T194 666Q198 706 206 774T230 949T266 1211T318 1577H490Q460 1362 439 1206T402 939T378 759T364 647Q361 617 359 597T357 563T356 540T355 522Q355 432 372 354T432 217T543 126T717 93ZM1021 2203H1128L1236 1679H1106L1043 1997L848
1679H695L1021 2203Z" />
<glyph unicode="&#xdc;" glyph-name="Udieresis" horiz-adv-x="1373" d="M717 93Q827 93 906 124T1040 227T1132 417T1193 709L1317 1577H1489L1367 713Q1346 564 1312 450T1231 253T1127 113T1002 23T859 -25T700 -40Q575 -40 479 1T317 119T219 305T185 552Q185
559 185 566T186 586T189 618T194 666Q198 706 206 774T230 949T266 1211T318 1577H490Q460 1362 439 1206T402 939T378 759T364 647Q361 617 359 597T357 563T356 540T355 522Q355 432 372 354T432 217T543 126T717 93ZM879 1830Q879 1801 868 1775T839 1728T797
1695T750 1682Q705 1682 679 1712T653 1787Q653 1814 664 1840T693 1887T736 1919T786 1932Q828 1932 853 1903T879 1828V1830ZM1285 1828Q1285 1799 1274 1773T1245 1726T1203 1693T1156 1680Q1111 1680 1085 1710T1058 1785Q1058 1812 1069 1838T1098 1885T1141
1917T1191 1930Q1233 1930 1259 1901T1284 1826Q1284 1827 1284 1827T1285 1828Z" />
<glyph unicode="&#xdd;" glyph-name="Yacute" horiz-adv-x="1138" d="M652 630L1182 1572H1349L719 484L651 0H481L553 515L235 1572H386L652 630ZM701 1680H572L764 2298H996L701 1680Z" />
<glyph unicode="&#xde;" glyph-name="Thorn" horiz-adv-x="1351" d="M368 1578H541L523 1442H709Q867 1442 979 1421T1162 1356T1267 1244T1300 1079Q1300 924 1252 816T1109 638T873 538T546 506H391L321 0H146L368 1578ZM1137 1063Q1137 1109 1127 1142Q1115
1185 1086 1216T1005 1266T876 1295T690 1304H504L410 645H564Q721 645 830 666T1008 737T1106 866T1137 1063Z" />
<glyph unicode="&#xdf;" glyph-name="germandbls" horiz-adv-x="1295" d="M559 904Q691 904 776 926T909 991T976 1094T995 1229Q995 1337 936 1388T743 1439Q683 1439 640 1420T566 1367T516 1290T485 1201T465 1107T452 1018L310 0H146L284 991Q295 1069 310
1143T349 1282T408 1401T492 1495T609 1556T766 1578Q867 1578 937 1549T1052 1470T1117 1356T1137 1221Q1137 1129 1112 1062T1040 948T930 877T787 846Q864 839 938 814T1072 743T1167 634T1203 484Q1203 328 1143 216T980 30T737 -81T439 -126L465 24Q585 35
674 58T826 116T931 192T996 282T1029 383T1039 491Q1039 639 914 708T539 777L559 904Z" />
<glyph unicode="&#xe0;" glyph-name="agrave" horiz-adv-x="1093" d="M1133 1066L980 0H855L864 197Q804 92 715 36T523 -21Q429 -21 363 12T256 103T195 236T176 400Q176 477 196 564T254 737T346 900T469 1037T619 1132T793 1168Q825 1168 864 1161T943 1143T1019
1118T1080 1093L1133 1066ZM330 404Q330 324 344 267T386 174T458 121T560 104Q611 104 658 125T746 177T816 243T864 305L968 1002Q969 1003 954 1009T913 1022T855 1034T792 1040Q735 1040 679 1016T572 950T476 848T400 719T349 568T330 404ZM791 1316H721L488
1930H746L791 1316Z" />
<glyph unicode="&#xe1;" glyph-name="aacute" horiz-adv-x="1093" d="M1133 1066L980 0H855L864 197Q804 92 715 36T523 -21Q429 -21 363 12T256 103T195 236T176 400Q176 477 196 564T254 737T346 900T469 1037T619 1132T793 1168Q825 1168 864 1161T943 1143T1019
1118T1080 1093L1133 1066ZM330 404Q330 324 344 267T386 174T458 121T560 104Q611 104 658 125T746 177T816 243T864 305L968 1002Q969 1003 954 1009T913 1022T855 1034T792 1040Q735 1040 679 1016T572 950T476 848T400 719T349 568T330 404ZM787 1288H658L850
1906H1082L787 1288Z" />
<glyph unicode="&#xe2;" glyph-name="acircumflex" horiz-adv-x="1093" d="M1133 1066L980 0H855L864 197Q804 92 715 36T523 -21Q429 -21 363 12T256 103T195 236T176 400Q176 477 196 564T254 737T346 900T469 1037T619 1132T793 1168Q825 1168 864 1161T943
1143T1019 1118T1080 1093L1133 1066ZM330 404Q330 324 344 267T386 174T458 121T560 104Q611 104 658 125T746 177T816 243T864 305L968 1002Q969 1003 954 1009T913 1022T855 1034T792 1040Q735 1040 679 1016T572 950T476 848T400 719T349 568T330 404ZM806
1811H913L1021 1287H891L828 1605L633 1287H480L806 1811Z" />
<glyph unicode="&#xe3;" glyph-name="atilde" horiz-adv-x="1093" d="M1133 1066L980 0H855L864 197Q804 92 715 36T523 -21Q429 -21 363 12T256 103T195 236T176 400Q176 477 196 564T254 737T346 900T469 1037T619 1132T793 1168Q825 1168 864 1161T943 1143T1019
1118T1080 1093L1133 1066ZM330 404Q330 324 344 267T386 174T458 121T560 104Q611 104 658 125T746 177T816 243T864 305L968 1002Q969 1003 954 1009T913 1022T855 1034T792 1040Q735 1040 679 1016T572 950T476 848T400 719T349 568T330 404ZM955 1288Q906 1288
857 1306T764 1347T681 1387T615 1406Q602 1406 590 1404T567 1393T550 1366T543 1314H400Q400 1374 417 1418T464 1491T534 1534T622 1548Q669 1548 712 1530T796 1490T872 1450T940 1431Q957 1431 970 1434T993 1447T1008 1475T1013 1523H1154Q1154 1454 1139
1409T1096 1337T1033 1299T955 1288Z" />
<glyph unicode="&#xe4;" glyph-name="adieresis" horiz-adv-x="1093" d="M1133 1066L980 0H855L864 197Q804 92 715 36T523 -21Q429 -21 363 12T256 103T195 236T176 400Q176 477 196 564T254 737T346 900T469 1037T619 1132T793 1168Q825 1168 864 1161T943 1143T1019
1118T1080 1093L1133 1066ZM330 404Q330 324 344 267T386 174T458 121T560 104Q611 104 658 125T746 177T816 243T864 305L968 1002Q969 1003 954 1009T913 1022T855 1034T792 1040Q735 1040 679 1016T572 950T476 848T400 719T349 568T330 404ZM656 1438Q656 1409
645 1383T616 1336T574 1303T527 1290Q482 1290 456 1320T430 1395Q430 1422 441 1448T470 1495T513 1527T563 1540Q605 1540 630 1511T656 1436V1438ZM1062 1436Q1062 1407 1051 1381T1022 1334T980 1301T933 1288Q888 1288 862 1318T835 1393Q835 1420 846 1446T875
1493T918 1525T968 1538Q1010 1538 1036 1509T1061 1434Q1061 1435 1061 1435T1062 1436Z" />
<glyph unicode="&#xe5;" glyph-name="aring" horiz-adv-x="1093" d="M1133 1066L980 0H855L864 197Q804 92 715 36T523 -21Q429 -21 363 12T256 103T195 236T176 400Q176 477 196 564T254 737T346 900T469 1037T619 1132T793 1168Q825 1168 864 1161T943 1143T1019
1118T1080 1093L1133 1066ZM330 404Q330 324 344 267T386 174T458 121T560 104Q611 104 658 125T746 177T816 243T864 305L968 1002Q969 1003 954 1009T913 1022T855 1034T792 1040Q735 1040 679 1016T572 950T476 848T400 719T349 568T330 404ZM868 1604Q841 1604
820 1593T783 1562T759 1518T750 1467Q750 1425 770 1398T836 1370Q861 1370 882 1381T920 1412T944 1456T953 1507Q953 1549 932 1576T868 1604ZM664 1451Q664 1499 681 1541T727 1616T797 1666T882 1685Q918 1685 947 1672T998 1637T1030 1584T1042 1519Q1042
1470 1025 1428T979 1355T910 1306T825 1288Q788 1288 759 1300T708 1333T676 1385T664 1451Z" />
<glyph unicode="&#xe6;" glyph-name="ae" horiz-adv-x="1742" d="M1622 102Q1580 72 1533 50T1438 11T1343 -13T1254 -21Q1121 -21 1039 32T911 184Q875 140 827 103T727 38T621 -5T523 -21Q430 -21 364 11T257 101T196 234T176 400Q176 480 196 568T254 741T348
904T475 1040T631 1133T814 1168Q901 1168 965 1152T1072 1116T1134 1080T1152 1065Q1212 1113 1284 1140T1442 1168Q1519 1168 1580 1146T1684 1077T1749 958T1772 788Q1772 764 1768 743T1742 701T1675 663T1549 626T1343 591T1040 557Q1033 512 1030 474T1027
400Q1027 248 1098 177T1294 105Q1369 105 1441 140T1587 233L1622 102ZM330 397Q331 319 345 263T388 172T460 121T560 104Q604 104 650 122T739 169T818 229T878 290Q868 346 868 412Q868 481 881 556T920 704T981 847T1063 974Q1064 974 1049 984T1001 1007T919
1029T801 1040Q741 1040 683 1017T572 950T475 848T399 717T348 564T330 397ZM1058 670Q1200 688 1297 703T1458 730T1556 753T1607 773T1626 790T1629 807Q1629 922 1579 981T1438 1039Q1366 1039 1305 1015T1196 943T1112 827T1058 670Z" />
<glyph unicode="&#xe7;" glyph-name="ccedilla" horiz-adv-x="988" d="M176 415Q176 586 222 725T348 963T531 1114T750 1168Q847 1168 931 1138T1085 1045L1014 920Q995 943 966 965T901 1004T828 1031T752 1041Q669 1041 606 1007T496 918T419 791T371 647Q357
584 351 525T344 414Q344 257 406 181T578 104Q641 104 695 119T804 164Q830 178 856 196T908 234L938 112Q750 -21 559 -21Q480 -21 411 4T289 81T207 216T176 415ZM407 -527Q407 -517 407 -508T409 -488L411 -416Q449 -435 485 -446T552 -462Q574 -465 593 -465Q633
-465 659 -454T702 -425T724 -387T731 -349Q731 -328 715 -308T664 -273T580 -247T460 -237L539 24H653Q619 -55 602 -98T582 -149Q619 -149 665 -156T753 -182T822 -237T851 -329V-327Q851 -384 829 -430T770 -509T685 -559T585 -577Q531 -577 488 -564T407 -527Z"
/>
<glyph unicode="&#xe8;" glyph-name="egrave" horiz-adv-x="1063" d="M375 670Q517 688 614 703T775 730T873 753T924 773T943 790T946 807Q946 922 896 980T755 1039Q683 1039 622 1015T513 943T429 827T375 670ZM938 102Q896 72 850 49T755 11T660 -13T571 -21Q473
-21 399 9T276 95T201 231T176 411Q176 492 191 579T238 751T316 911T425 1044T563 1134T732 1168Q916 1168 1002 1076T1089 788Q1089 764 1085 743T1059 701T992 663T865 626T660 591T357 557Q349 512 346 474T343 400Q343 248 414 177T610 105Q685 105 758 140T903
233L938 102ZM769 1316H699L466 1930H724L769 1316Z" />
<glyph unicode="&#xe9;" glyph-name="eacute" horiz-adv-x="1063" d="M375 670Q517 688 614 703T775 730T873 753T924 773T943 790T946 807Q946 922 896 980T755 1039Q683 1039 622 1015T513 943T429 827T375 670ZM938 102Q896 72 850 49T755 11T660 -13T571 -21Q473
-21 399 9T276 95T201 231T176 411Q176 492 191 579T238 751T316 911T425 1044T563 1134T732 1168Q916 1168 1002 1076T1089 788Q1089 764 1085 743T1059 701T992 663T865 626T660 591T357 557Q349 512 346 474T343 400Q343 248 414 177T610 105Q685 105 758 140T903
233L938 102ZM766 1288H637L829 1906H1061L766 1288Z" />
<glyph unicode="&#xea;" glyph-name="ecircumflex" horiz-adv-x="1063" d="M375 670Q517 688 614 703T775 730T873 753T924 773T943 790T946 807Q946 922 896 980T755 1039Q683 1039 622 1015T513 943T429 827T375 670ZM938 102Q896 72 850 49T755 11T660 -13T571
-21Q473 -21 399 9T276 95T201 231T176 411Q176 492 191 579T238 751T316 911T425 1044T563 1134T732 1168Q916 1168 1002 1076T1089 788Q1089 764 1085 743T1059 701T992 663T865 626T660 591T357 557Q349 512 346 474T343 400Q343 248 414 177T610 105Q685 105
758 140T903 233L938 102ZM785 1811H892L1000 1287H870L807 1605L612 1287H459L785 1811Z" />
<glyph unicode="&#xeb;" glyph-name="edieresis" horiz-adv-x="1063" d="M375 670Q517 688 614 703T775 730T873 753T924 773T943 790T946 807Q946 922 896 980T755 1039Q683 1039 622 1015T513 943T429 827T375 670ZM938 102Q896 72 850 49T755 11T660 -13T571
-21Q473 -21 399 9T276 95T201 231T176 411Q176 492 191 579T238 751T316 911T425 1044T563 1134T732 1168Q916 1168 1002 1076T1089 788Q1089 764 1085 743T1059 701T992 663T865 626T660 591T357 557Q349 512 346 474T343 400Q343 248 414 177T610 105Q685 105
758 140T903 233L938 102ZM635 1438Q635 1409 624 1383T595 1336T553 1303T506 1290Q461 1290 435 1320T409 1395Q409 1422 420 1448T449 1495T492 1527T542 1540Q584 1540 609 1511T635 1436V1438ZM1041 1436Q1041 1407 1030 1381T1001 1334T959 1301T912 1288Q867
1288 841 1318T814 1393Q814 1420 825 1446T854 1493T897 1525T947 1538Q989 1538 1015 1509T1040 1434Q1040 1435 1040 1435T1041 1436Z" />
<glyph unicode="&#xec;" glyph-name="igrave" horiz-adv-x="586" d="M370 0H209L373 1171H536L370 0ZM534 1255L475 1228L257 1774L489 1868L534 1255Z" />
<glyph unicode="&#xed;" glyph-name="iacute" horiz-adv-x="586" d="M370 0H209L373 1171H536L370 0ZM476 1209L435 1236L684 1843L875 1747L476 1209Z" />
<glyph unicode="&#xee;" glyph-name="icircumflex" horiz-adv-x="586" d="M601 1504Q602 1481 594 1462T569 1430T531 1412T484 1414Q442 1414 422 1443T406 1514Q405 1534 414 1552T439 1583T478 1601T526 1600Q563 1600 584 1573T601 1504ZM365 1110H532L387
180L366 -60L310 -76Q314 -71 317 -60H212L365 1110Z" />
<glyph unicode="&#xef;" glyph-name="idieresis" horiz-adv-x="586" d="M370 0H209L373 1171H536L370 0ZM398 1386Q398 1357 387 1331T358 1284T316 1251T269 1238Q224 1238 198 1268T171 1343Q171 1370 182 1396T212 1443T255 1475T305 1488Q347 1488 372 1459T398
1384V1386ZM803 1384Q803 1355 792 1329T763 1282T722 1249T674 1236Q629 1236 603 1266T577 1341Q577 1368 588 1394T617 1441T660 1473T710 1486Q752 1486 778 1457T803 1382V1384Z" />
<glyph unicode="&#xf0;" glyph-name="eth" horiz-adv-x="1172" d="M329 400Q329 364 332 333T343 275Q383 118 538 118Q601 118 662 145T774 228T862 366T915 560Q920 595 923 632T925 711Q926 796 902 851T842 938T764 983T687 996Q612 996 557 967T462 890T396
781T356 653T335 521T329 400ZM176 410Q176 497 191 584T235 752T306 902T403 1023T524 1103T669 1133Q719 1133 764 1118T848 1080T916 1029T962 972Q951 1069 921 1161T842 1347L621 1268L602 1365L792 1433Q750 1496 709 1545T624 1633L708 1741Q774 1692 831
1629T936 1484L1189 1575L1210 1478L983 1398Q1095 1155 1095 873Q1095 754 1079 642T1030 431T950 249T839 106T697 13T524 -20Q429 -20 363 13T256 105T195 242T176 410Z" />
<glyph unicode="&#xf1;" glyph-name="ntilde" horiz-adv-x="1169" d="M888 0Q915 191 933 323T963 543T981 680T990 754Q993 782 993 792T994 811Q994 863 986 905T957 978T904 1024T821 1041Q777 1041 721 1021T611 973T512 914T445 862L325 0H155L316 1147H436L434
959Q467 995 518 1032T629 1100T751 1149T868 1168Q1015 1168 1090 1091T1166 854Q1166 846 1166 838T1164 817T1161 787T1156 742Q1152 706 1145 649T1125 503T1096 292T1056 0H888ZM955 1288Q906 1288 857 1306T764 1347T681 1387T615 1406Q602 1406 590 1404T567
1393T550 1366T543 1314H400Q400 1374 417 1418T464 1491T534 1534T622 1548Q669 1548 712 1530T796 1490T872 1450T940 1431Q957 1431 970 1434T993 1447T1008 1475T1013 1523H1154Q1154 1454 1139 1409T1096 1337T1033 1299T955 1288Z" />
<glyph unicode="&#xf2;" glyph-name="ograve" horiz-adv-x="1150" d="M176 428Q176 519 192 609T242 782T325 935T440 1057T588 1138T769 1168Q849 1168 910 1150T1017 1101T1092 1028T1140 937T1165 835T1173 729Q1173 561 1126 423T997 186T807 33T579 -21Q489
-21 415 10T287 98T205 239T176 428ZM602 104Q679 104 739 132T845 206T922 314T973 443T1002 579T1011 708Q1011 775 998 835T955 942T875 1014T749 1041Q672 1041 612 1013T506 936T428 826T376 696T347 560T338 432Q338 365 350 306T393 201T474 130T602 104ZM811
1316H741L508 1930H766L811 1316Z" />
<glyph unicode="&#xf3;" glyph-name="oacute" horiz-adv-x="1150" d="M176 428Q176 519 192 609T242 782T325 935T440 1057T588 1138T769 1168Q849 1168 910 1150T1017 1101T1092 1028T1140 937T1165 835T1173 729Q1173 561 1126 423T997 186T807 33T579 -21Q489
-21 415 10T287 98T205 239T176 428ZM602 104Q679 104 739 132T845 206T922 314T973 443T1002 579T1011 708Q1011 775 998 835T955 942T875 1014T749 1041Q672 1041 612 1013T506 936T428 826T376 696T347 560T338 432Q338 365 350 306T393 201T474 130T602 104ZM808
1288H679L871 1906H1103L808 1288Z" />
<glyph unicode="&#xf4;" glyph-name="ocircumflex" horiz-adv-x="1150" d="M176 428Q176 519 192 609T242 782T325 935T440 1057T588 1138T769 1168Q849 1168 910 1150T1017 1101T1092 1028T1140 937T1165 835T1173 729Q1173 561 1126 423T997 186T807 33T579
-21Q489 -21 415 10T287 98T205 239T176 428ZM602 104Q679 104 739 132T845 206T922 314T973 443T1002 579T1011 708Q1011 775 998 835T955 942T875 1014T749 1041Q672 1041 612 1013T506 936T428 826T376 696T347 560T338 432Q338 365 350 306T393 201T474 130T602
104ZM827 1811H934L1042 1287H912L849 1605L654 1287H501L827 1811Z" />
<glyph unicode="&#xf5;" glyph-name="otilde" horiz-adv-x="1150" d="M176 428Q176 519 192 609T242 782T325 935T440 1057T588 1138T769 1168Q849 1168 910 1150T1017 1101T1092 1028T1140 937T1165 835T1173 729Q1173 561 1126 423T997 186T807 33T579 -21Q489
-21 415 10T287 98T205 239T176 428ZM602 104Q679 104 739 132T845 206T922 314T973 443T1002 579T1011 708Q1011 775 998 835T955 942T875 1014T749 1041Q672 1041 612 1013T506 936T428 826T376 696T347 560T338 432Q338 365 350 306T393 201T474 130T602 104ZM976
1288Q927 1288 878 1306T785 1347T702 1387T636 1406Q623 1406 611 1404T588 1393T571 1366T564 1314H421Q421 1374 438 1418T485 1491T555 1534T643 1548Q690 1548 733 1530T817 1490T893 1450T961 1431Q978 1431 991 1434T1014 1447T1029 1475T1034 1523H1175Q1175
1454 1160 1409T1117 1337T1054 1299T976 1288Z" />
<glyph unicode="&#xf6;" glyph-name="odieresis" horiz-adv-x="1150" d="M176 428Q176 519 192 609T242 782T325 935T440 1057T588 1138T769 1168Q849 1168 910 1150T1017 1101T1092 1028T1140 937T1165 835T1173 729Q1173 561 1126 423T997 186T807 33T579 -21Q489
-21 415 10T287 98T205 239T176 428ZM602 104Q679 104 739 132T845 206T922 314T973 443T1002 579T1011 708Q1011 775 998 835T955 942T875 1014T749 1041Q672 1041 612 1013T506 936T428 826T376 696T347 560T338 432Q338 365 350 306T393 201T474 130T602 104ZM677
1438Q677 1409 666 1383T637 1336T595 1303T548 1290Q503 1290 477 1320T451 1395Q451 1422 462 1448T491 1495T534 1527T584 1540Q626 1540 651 1511T677 1436V1438ZM1083 1436Q1083 1407 1072 1381T1043 1334T1001 1301T954 1288Q909 1288 883 1318T856 1393Q856
1420 867 1446T896 1493T939 1525T989 1538Q1031 1538 1057 1509T1082 1434Q1082 1435 1082 1435T1083 1436Z" />
<glyph unicode="&#xf7;" glyph-name="divide" horiz-adv-x="682" d="M246 605L287 860H538L497 605H246ZM156 0L197 255H448L407 0H156Z" />
<glyph unicode="&#xf8;" glyph-name="oslash" horiz-adv-x="1078" d="M504 115Q524 110 543 108T583 106Q642 106 689 125T772 176T836 250T882 339T913 434T933 528Q940 574 942 613T945 681Q945 766 929 829T878 932L504 115ZM176 426Q176 487 187 562T223 716T289
868T391 1001T533 1094T721 1129Q809 1129 874 1104L944 1254L1011 1220L942 1070Q1027 1007 1065 905T1102 674Q1102 646 1100 619T1095 563Q1081 450 1041 345T934 159T773 28T557 -21Q527 -21 501 -18T448 -10L369 -181L298 -145L372 17Q320 43 283 84T222 179T187
295T176 426ZM816 980Q791 990 765 995T712 1001Q631 1001 571 968T468 881T398 760T355 627Q342 572 337 520T332 426Q332 231 433 148L816 980Z" />
<glyph unicode="&#xf9;" glyph-name="ugrave" horiz-adv-x="1156" d="M482 1147Q482 1150 477 1110T462 1003T442 852T419 684T398 525T381 399Q377 368 375 349T373 327Q373 248 395 197Q417 149 456 127T552 104Q643 104 728 146T904 270L1027 1147H1195L1035
0H909Q910 45 910 87T910 175Q813 75 720 27T532 -21Q370 -21 287 57T204 298Q204 302 206 322T212 375T221 450T232 541Q240 604 249 674T267 812T284 942T299 1050T309 1123T313 1147H482ZM837 1317H767L534 1931H792L837 1317Z" />
<glyph unicode="&#xfa;" glyph-name="uacute" horiz-adv-x="1156" d="M482 1147Q482 1150 477 1110T462 1003T442 852T419 684T398 525T381 399Q377 368 375 349T373 327Q373 248 395 197Q417 149 456 127T552 104Q643 104 728 146T904 270L1027 1147H1195L1035
0H909Q910 45 910 87T910 175Q813 75 720 27T532 -21Q370 -21 287 57T204 298Q204 302 206 322T212 375T221 450T232 541Q240 604 249 674T267 812T284 942T299 1050T309 1123T313 1147H482ZM834 1289H705L897 1907H1129L834 1289Z" />
<glyph unicode="&#xfb;" glyph-name="ucircumflex" horiz-adv-x="1156" d="M482 1147Q482 1150 477 1110T462 1003T442 852T419 684T398 525T381 399Q377 368 375 349T373 327Q373 248 395 197Q417 149 456 127T552 104Q643 104 728 146T904 270L1027 1147H1195L1035
0H909Q910 45 910 87T910 175Q813 75 720 27T532 -21Q370 -21 287 57T204 298Q204 302 206 322T212 375T221 450T232 541Q240 604 249 674T267 812T284 942T299 1050T309 1123T313 1147H482ZM852 1812H959L1067 1288H937L874 1606L679 1288H526L852 1812Z" />
<glyph unicode="&#xfc;" glyph-name="udieresis" horiz-adv-x="1156" d="M482 1147Q482 1150 477 1110T462 1003T442 852T419 684T398 525T381 399Q377 368 375 349T373 327Q373 248 395 197Q417 149 456 127T552 104Q643 104 728 146T904 270L1027 1147H1195L1035
0H909Q910 45 910 87T910 175Q813 75 720 27T532 -21Q370 -21 287 57T204 298Q204 302 206 322T212 375T221 450T232 541Q240 604 249 674T267 812T284 942T299 1050T309 1123T313 1147H482ZM702 1439Q702 1410 691 1384T662 1337T620 1304T573 1291Q528 1291 502
1321T476 1396Q476 1423 487 1449T516 1496T559 1528T609 1541Q651 1541 676 1512T702 1437V1439ZM1108 1437Q1108 1408 1097 1382T1068 1335T1026 1302T979 1289Q934 1289 908 1319T881 1394Q881 1421 892 1447T921 1494T964 1526T1014 1539Q1056 1539 1082 1510T1107
1435Q1107 1436 1107 1436T1108 1437Z" />
<glyph unicode="&#xfd;" glyph-name="yacute" horiz-adv-x="1018" d="M81 -339Q156 -329 207 -304Q246 -286 277 -259T335 -194T390 -104T449 17Q441 54 434 90T418 165L214 1147H377L559 232L983 1147H1157L631 95Q609 51 586 1T537 -101T481 -203T416 -296T338
-374T244 -430Q185 -453 106 -458L81 -339Z" />
<glyph unicode="&#xfe;" glyph-name="thorn" horiz-adv-x="1167" d="M1190 697Q1190 625 1178 544T1141 383T1077 231T982 102T856 13T696 -20Q478 -20 402 121L319 -467L158 -490L446 1565H603L516 941Q588 1029 677 1079T860 1129Q951 1129 1014 1094T1116 999T1172
861T1190 697ZM713 116Q780 116 830 145T915 221T974 331T1011 458T1030 588T1036 706Q1036 993 835 993Q782 993 733 976T641 934T564 880T508 828L425 246Q429 241 450 220T509 176T597 135T713 116Z" />
<glyph unicode="&#xff;" glyph-name="ydieresis" horiz-adv-x="1018" d="M81 -339Q156 -329 207 -304Q246 -286 277 -259T335 -194T390 -104T449 17Q441 54 434 90T418 165L214 1147H377L559 232L983 1147H1157L631 95Q609 51 586 1T537 -101T481 -203T416 -296T338
-374T244 -430Q185 -453 106 -458L81 -339Z" />
</font>
</defs>
</svg>
